<svg width="37" height="37" viewBox="0 0 37 37" fill="none" xmlns="http://www.w3.org/2000/svg">
<circle cx="18.5" cy="18.5" r="18.5" fill="#DAE2E7"/>
<path d="M18.2214 27.9994C15.9602 27.9994 13.699 28.0018 11.4378 27.9994C10.3239 27.9982 9.92711 27.568 10.0108 26.4696C10.2785 22.9727 12.8552 20.4509 16.449 20.3254C18.1437 20.2657 19.8802 20.2609 21.5379 20.5621C24.3667 21.0772 26.377 23.5882 26.5574 26.4481C26.6279 27.5608 26.2096 27.9982 25.0647 27.9994C22.7832 28.0018 20.5029 27.9994 18.2214 27.9994Z" fill="#696F71"/>
<path d="M22.9958 13.7594C22.9922 16.3528 20.8589 18.4849 18.2702 18.4837C15.6839 18.4837 13.5542 16.3552 13.5387 13.7558C13.5231 11.1516 15.7066 8.97403 18.3049 9.00033C20.9031 9.02662 23.0005 11.154 22.9958 13.7594Z" fill="#696F71"/>
</svg>
