<svg width="94" height="106" viewBox="0 0 94 106" fill="none" xmlns="http://www.w3.org/2000/svg">
<path d="M46.0013 74.6256C45.5037 74.6256 45.1502 74.6256 44.7835 74.6256C36.3507 74.6256 27.9178 74.6256 19.4849 74.6256C14.6793 74.6256 10.3581 73.159 6.7178 69.9901C2.37042 66.2058 0.0526931 61.4263 0.0265041 55.6516C-0.0258739 43.3821 0.0134096 31.1256 0.0134096 18.8561C0.000315137 9.96492 6.82255 1.85942 15.5959 0.379741C16.9577 0.14404 18.3719 0.026189 19.7599 0.0130945C30.9295 0 42.1122 0 53.2818 0C61.4135 0 67.5549 6.12823 67.581 14.2861C67.5941 19.6156 67.581 24.9319 67.581 30.2614V31.3875C68.0786 31.3875 68.4977 31.3744 68.9298 31.3875C71.9677 31.4923 75.058 31.3351 78.0435 31.7804C86.0967 32.972 92.657 39.9906 93.5736 48.0961C93.6784 49.0258 93.7439 49.9555 93.7439 50.8852C93.7439 62.8405 93.7439 74.7958 93.7439 86.7511C93.7439 96.4934 86.6335 104.599 76.996 105.856C76.2627 105.948 75.5032 106 74.7699 106C61.3612 106 47.9393 106 34.5305 106C31.2176 106 28.8606 103.892 28.507 100.592C28.3499 99.0992 28.8606 97.8029 29.7641 96.5982C35.1198 89.4224 40.4623 82.2335 45.8049 75.0446C45.8573 74.9791 45.8835 74.8875 46.0013 74.6125V74.6256ZM47.3893 45.4903C38.4196 45.4903 29.4629 45.4903 20.4932 45.4903C17.0625 45.4903 14.4305 47.7818 14.0638 51.134C13.9329 52.3911 14.0245 53.6875 14.0245 54.9576C14.0245 58.4015 16.1458 60.5359 19.6028 60.5359C30.9033 60.5359 42.2039 60.4966 53.4914 60.5621C58.6244 60.5883 62.6444 62.8536 65.4204 67.1748C67.7775 70.8413 67.5156 74.6518 64.8312 78.0825C62.4873 81.0681 60.1696 84.0667 57.8256 87.0523C57.04 88.0605 56.7126 89.1212 57.328 90.339C57.9304 91.5175 58.9256 91.9496 60.235 91.9496C64.8705 91.9234 69.5059 91.8318 74.1414 91.9758C77.1531 92.0675 79.7458 89.7105 79.7327 86.3452C79.6673 74.6125 79.7066 62.8798 79.7066 51.134C79.7066 47.6116 77.5983 45.5034 74.0759 45.5034C65.1717 45.5034 56.2674 45.5034 47.3762 45.5034L47.3893 45.4903ZM14.0376 31.3351H53.5045C53.5306 31.1649 53.5699 31.0471 53.5699 30.9292C53.5699 27.014 53.6223 23.0856 53.5699 19.1704C53.5175 16.2241 51.2653 14.1159 48.319 14.1159C38.6684 14.1159 29.0308 14.1159 19.3802 14.1159C16.2375 14.1159 14.0507 16.3158 14.0507 19.4584C14.0507 22.9416 14.0507 26.4247 14.0507 29.9209V31.3482L14.0376 31.3351Z" fill="#00ACA9"/>
<path d="M14.0506 102.333C8.44611 102.359 3.90232 97.8549 3.74518 92.4076C3.57495 86.5937 8.30207 81.9189 13.7494 81.8011C19.6026 81.6701 24.1333 86.4627 24.2905 91.7791C24.4476 97.2395 20.0347 102.373 14.0506 102.333Z" fill="#FF5039"/>
<path d="M46.0013 74.6256C45.5037 74.6256 45.1502 74.6256 44.7835 74.6256C36.3507 74.6256 27.9178 74.6256 19.4849 74.6256C14.6793 74.6256 10.3581 73.159 6.7178 69.9901C2.37042 66.2058 0.0526931 61.4263 0.0265041 55.6516C-0.0258739 43.3821 0.0134096 31.1256 0.0134096 18.8561C0.000315137 9.96492 6.82255 1.85942 15.5959 0.379741C16.9577 0.14404 18.3719 0.026189 19.7599 0.0130945C30.9295 0 42.1122 0 53.2818 0C61.4135 0 67.5549 6.12823 67.581 14.2861C67.5941 19.6156 67.581 24.9319 67.581 30.2614V31.3875C68.0786 31.3875 68.4977 31.3744 68.9298 31.3875C71.9677 31.4923 75.058 31.3351 78.0435 31.7804C86.0967 32.972 92.657 39.9906 93.5736 48.0961C93.6784 49.0258 93.7439 49.9555 93.7439 50.8852C93.7439 62.8405 93.7439 74.7958 93.7439 86.7511C93.7439 96.4934 86.6335 104.599 76.996 105.856C76.2627 105.948 75.5032 106 74.7699 106C61.3612 106 47.9393 106 34.5305 106C31.2176 106 28.8606 103.892 28.507 100.592C28.3499 99.0992 28.8606 97.8029 29.7641 96.5982C35.1198 89.4224 40.4623 82.2335 45.8049 75.0446C45.8573 74.9791 45.8835 74.8875 46.0013 74.6125V74.6256ZM47.3893 45.4903C38.4196 45.4903 29.4629 45.4903 20.4932 45.4903C17.0625 45.4903 14.4305 47.7818 14.0638 51.134C13.9329 52.3911 14.0245 53.6875 14.0245 54.9576C14.0245 58.4015 16.1458 60.5359 19.6028 60.5359C30.9033 60.5359 42.2039 60.4966 53.4914 60.5621C58.6244 60.5883 62.6444 62.8536 65.4204 67.1748C67.7775 70.8413 67.5156 74.6518 64.8312 78.0825C62.4873 81.0681 60.1696 84.0667 57.8256 87.0523C57.04 88.0605 56.7126 89.1212 57.328 90.339C57.9304 91.5175 58.9256 91.9496 60.235 91.9496C64.8705 91.9234 69.5059 91.8318 74.1414 91.9758C77.1531 92.0675 79.7458 89.7105 79.7327 86.3452C79.6673 74.6125 79.7066 62.8798 79.7066 51.134C79.7066 47.6116 77.5983 45.5034 74.0759 45.5034C65.1717 45.5034 56.2674 45.5034 47.3762 45.5034L47.3893 45.4903ZM14.0376 31.3351H53.5045C53.5306 31.1649 53.5699 31.0471 53.5699 30.9292C53.5699 27.014 53.6223 23.0856 53.5699 19.1704C53.5175 16.2241 51.2653 14.1159 48.319 14.1159C38.6684 14.1159 29.0308 14.1159 19.3802 14.1159C16.2375 14.1159 14.0507 16.3158 14.0507 19.4584C14.0507 22.9416 14.0507 26.4247 14.0507 29.9209V31.3482L14.0376 31.3351Z" fill="#00ACA9"/>
</svg>
