<?xml version="1.0" encoding="UTF-8"?><svg id="Layer_2" xmlns="http://www.w3.org/2000/svg" viewBox="0 0 175.09 197.83"><defs><style>.cls-1{fill:#34aaa8;}.cls-1,.cls-2{stroke-width:0px;}.cls-2{fill:#ff6047;}</style></defs><g id="Layer_1-2"><path class="cls-1" d="m139.28,58.64h-13.16V26.05c0-14.39-11.66-26.05-26.05-26.05H35.81C16.03,0,0,16.03,0,35.81v67.58c0,19.78,16.03,35.81,35.81,35.81h50.5l-30.07,40.55h0c-.05.05-.09.1-.13.14-6.39,6.77-1.37,17.94,7.94,17.94h75.24c19.78,0,35.81-16.03,35.81-35.81v-67.58c0-19.78-16.03-35.81-35.81-35.81ZM26.15,35.81c0-5.33,4.32-9.66,9.66-9.66,0,0,36.66,0,54.6,0,5.34,0,9.67,4.33,9.67,9.67v22.82H26.15v-22.83Zm122.8,126.22c0,5.33-4.32,9.66-9.66,9.66h-27.4c-4.52,0-7.06-5.2-4.28-8.77l13.99-17.92c3.78-4.84,4.66-11.42,2.03-16.97-4.19-8.86-13.2-14.98-23.65-14.98H35.81c-5.33,0-9.66-4.32-9.66-9.66v-6.81c0-6.51,5.28-11.8,11.8-11.8h101.34c5.33,0,9.66,4.32,9.66,9.66v67.58Z"/><circle class="cls-2" cx="26.15" cy="171.89" r="19.28"/></g></svg>