<svg width="197" height="83" viewBox="0 0 197 83" fill="none" xmlns="http://www.w3.org/2000/svg">
<g clip-path="url(#clip0_8_2148)">
<path d="M36.0906 58.1992H35.1973C28.5244 58.1992 21.8542 58.2301 15.1814 58.1889C9.17533 58.1529 4.69332 55.4421 1.74565 50.2263C0.566577 48.1411 0.0182316 45.8499 0.0130828 43.4583C-0.00493788 33.8918 0.000210895 24.3228 0.00793406 14.7538C0.0130828 7.40137 5.73338 0.985991 13.0446 0.120996C13.6599 0.0489134 14.2829 0.00514878 14.9008 0.00514878C23.9549 0 33.0065 0 42.0606 0C47.2583 0 51.8587 3.96456 52.6079 9.10047C52.7005 9.73377 52.7469 10.3799 52.7494 11.0184C52.7623 15.2224 52.7546 19.4289 52.7546 23.6329C52.7546 23.8852 52.7546 24.1401 52.7546 24.4567C53.0404 24.4721 53.2669 24.4927 53.4934 24.4979C55.4448 24.5236 57.3988 24.4799 59.345 24.5777C65.2121 24.8789 70.5307 28.967 72.4255 34.52C73.0202 36.2654 73.2751 38.0546 73.2776 39.8824C73.2905 49.0421 73.2699 58.2018 73.2879 67.3641C73.3034 75.1593 68.2215 80.5527 62.442 82.1308C61.1136 82.4937 59.7054 82.7203 58.3333 82.728C47.8427 82.7769 37.352 82.7589 26.8614 82.7486C25.0053 82.7486 23.5971 81.9016 22.7707 80.236C21.9958 78.6759 22.0807 77.1107 23.1182 75.6819C24.4286 73.8798 25.7982 72.1215 27.1291 70.3323C29.9815 66.4965 32.8262 62.6555 35.6709 58.8171C35.7842 58.6652 35.8846 58.5004 36.0854 58.1992H36.0906ZM62.3699 53.6348C62.3699 49.1091 62.3751 44.5833 62.3622 40.0575C62.3622 39.5272 62.321 38.9788 62.1897 38.4691C61.7083 36.6052 60.1071 35.4236 58.081 35.4185C54.3481 35.4082 50.6179 35.4159 46.885 35.4159C36.6312 35.4159 26.38 35.4159 16.1262 35.4159C13.3896 35.4159 11.3739 37.1175 10.9929 39.8232C10.859 40.7706 10.9774 41.7489 10.913 42.7091C10.7509 45.1986 12.522 47.325 15.4955 47.3018C24.2252 47.2349 32.955 47.2761 41.6847 47.2787C44.8667 47.2787 47.5904 48.3882 49.7838 50.7026C52.8679 53.9566 53.2901 57.8337 50.417 61.2576C48.5583 63.4716 46.8412 65.8065 45.0649 68.09C44.4934 68.8263 44.3466 69.6398 44.7663 70.4945C45.191 71.3595 45.9067 71.8152 46.8747 71.8152C50.6925 71.8203 54.5103 71.8229 58.3282 71.8152C59.2318 71.8152 60.0478 71.5088 60.7635 70.9528C61.9658 70.0157 62.3699 68.731 62.3699 67.2714C62.3699 62.725 62.3699 58.1761 62.3699 53.6297V53.6348ZM10.9233 24.4541H41.8443C41.8675 24.3306 41.8984 24.2482 41.8984 24.1684C41.901 21.0585 41.955 17.9486 41.8855 14.8414C41.834 12.5476 40.0345 10.9283 37.7253 10.9283C30.2004 10.9283 22.6754 10.9283 15.1479 10.9283C12.6508 10.9283 10.9233 12.6634 10.9233 15.1735C10.9233 18.0259 10.9233 20.8757 10.9233 23.7281C10.9233 23.9573 10.9233 24.1864 10.9233 24.4541Z" fill="#00ACA9"/>
<path d="M10.9077 79.896C6.50036 79.9398 2.88591 76.2198 2.9374 71.8742C2.98889 67.4077 6.51838 63.8705 11.0184 63.8782C15.3923 63.8833 19.017 67.5261 18.963 71.9515C18.9038 76.6909 15.0422 79.9784 10.9103 79.896H10.9077Z" fill="#FF5039"/>
<path d="M143.79 48.0253H147.08C147.188 48.6637 147.291 49.2867 147.415 50.0204C147.742 49.7579 148.015 49.5365 148.29 49.3202C149.917 48.0279 151.711 47.3251 153.83 47.737C155.037 47.9712 155.877 48.638 156.312 49.8608C157.375 48.9649 158.438 48.1849 159.749 47.8399C160.807 47.5619 161.865 47.5207 162.915 47.8296C164.246 48.2209 165.183 49.3048 165.206 50.7644C165.265 54.451 165.227 58.1375 165.227 61.8678H161.103C161.103 61.6412 161.103 61.4147 161.103 61.1881C161.103 58.485 161.108 55.7819 161.098 53.0814C161.098 52.7416 161.051 52.3992 160.982 52.0645C160.881 51.5728 160.559 51.3051 160.055 51.2227C158.734 51.0013 157.702 51.6887 156.662 52.3168C156.525 52.3992 156.497 52.7339 156.495 52.9501C156.484 55.6738 156.487 58.3975 156.487 61.1212C156.487 61.3555 156.487 61.5872 156.487 61.8652H152.489V61.1753C152.489 58.4953 152.442 55.8128 152.507 53.1329C152.548 51.3952 151.776 50.9035 150.043 51.3179C149.474 51.4544 148.954 51.7993 148.406 52.0336C148.02 52.201 147.901 52.4687 147.904 52.8909C147.922 55.6146 147.914 58.3383 147.914 61.062C147.914 61.3169 147.914 61.5717 147.914 61.8652H143.785V48.0201L143.79 48.0253Z" fill="white"/>
<path d="M86.412 50.2806H94.1944V53.3313H86.4712C86.4712 54.8347 86.4326 56.2635 86.4918 57.6846C86.515 58.2406 87.0942 58.565 87.8048 58.5676C90.0368 58.5727 92.2662 58.5676 94.4982 58.5676C94.7324 58.5676 94.9667 58.5676 95.2705 58.5676C95.34 59.6231 95.4095 60.6399 95.4816 61.7444C94.4287 61.801 93.4144 61.8757 92.3975 61.904C90.3199 61.9606 88.2424 62.0224 86.1623 62.0172C84.6717 62.0121 83.3536 61.5101 82.6071 60.1302C82.3059 59.5716 82.1154 58.8791 82.1076 58.2432C82.0639 54.3404 82.1437 50.4351 82.0639 46.5323C82.015 44.169 83.4824 42.3798 86.1597 42.3772C89.1151 42.3747 92.0705 42.5188 95.0233 42.6269C95.1752 42.6321 95.4455 42.8741 95.443 43.0002C95.4172 43.9167 95.3374 44.8306 95.2679 45.8218H94.5419C92.3331 45.8218 90.1243 45.8192 87.9129 45.8218C86.9166 45.8218 86.4764 46.1848 86.4223 47.1733C86.3683 48.1722 86.4094 49.1788 86.4094 50.2806H86.412Z" fill="white"/>
<path d="M127.051 54.7522C127.149 53.9309 127.211 52.9038 127.407 51.9023C127.839 49.6677 129.242 48.3471 131.451 47.894C133.294 47.5181 135.145 47.5207 136.996 47.8708C139.195 48.2879 140.618 49.5339 141.113 51.7324C141.591 53.8691 141.594 56.0291 141.12 58.1658C140.675 60.1816 139.437 61.461 137.385 61.9347C135.39 62.3955 133.389 62.4187 131.405 61.9888C128.915 61.4481 127.589 59.937 127.27 57.3935C127.17 56.5877 127.134 55.7768 127.051 54.7547V54.7522ZM137.127 55.195C137.048 54.2502 137.017 53.4778 136.909 52.7184C136.744 51.5445 136.154 50.8957 135.045 50.7541C134.463 50.6795 133.853 50.7541 133.263 50.8314C132.447 50.9343 131.958 51.475 131.78 52.237C131.356 54.0545 131.361 55.8849 131.778 57.7024C131.93 58.3692 132.344 58.915 133.026 59.0308C133.75 59.1544 134.509 59.1621 135.24 59.1003C136.103 59.0282 136.636 58.4567 136.798 57.6226C136.963 56.7679 137.037 55.8926 137.13 55.1924L137.127 55.195Z" fill="white"/>
<path d="M171.856 56.2374C172.144 58.1862 172.868 58.9096 174.739 58.9225C176.598 58.9353 178.459 58.7989 180.408 58.7242C180.532 59.4579 180.681 60.2483 180.781 61.0438C180.794 61.1442 180.565 61.3501 180.416 61.3861C179.407 61.6462 178.4 61.9474 177.37 62.0941C175.542 62.3541 173.702 62.3927 171.882 61.9963C169.534 61.484 168.066 60.0603 167.611 57.6919C167.214 55.635 167.219 53.5677 167.763 51.5262C168.365 49.2659 169.961 48.1461 172.17 47.8037C174.065 47.5076 175.965 47.4973 177.836 47.9993C180.125 48.612 181.319 50.306 181.152 52.6641C180.969 55.2205 179.818 56.1988 176.904 56.2348C175.236 56.2554 173.565 56.2374 171.853 56.2374H171.856ZM171.691 53.8149C173.099 53.8149 174.358 53.8123 175.617 53.8149C176.168 53.8149 176.727 53.8149 176.943 53.1764C177.187 52.4556 177.218 51.7245 176.67 51.1246C175.885 50.2648 173.115 50.4064 172.389 51.3151C172.283 51.449 172.157 51.5906 172.119 51.7476C171.964 52.399 171.843 53.0606 171.689 53.8149H171.691Z" fill="white"/>
<path d="M101.84 61.8755H97.7033V48.0021C98.7356 48.0021 99.7576 47.9867 100.777 48.0227C100.898 48.0279 101.076 48.2801 101.117 48.4449C101.238 48.9392 101.302 49.4489 101.403 50.0359C101.809 49.7501 102.16 49.4901 102.523 49.2533C104.09 48.2235 105.771 47.5748 107.692 47.6237C109.968 47.6803 111.301 49.0061 111.301 51.2973C111.301 54.5977 111.301 57.9006 111.301 61.201V61.8729H107.159C107.146 61.6335 107.126 61.3864 107.126 61.1418C107.126 58.5056 107.108 55.8669 107.128 53.2307C107.144 51.4055 106.763 50.9112 104.67 51.2999C103.807 51.4595 102.986 51.892 102.178 52.2704C101.992 52.358 101.856 52.739 101.853 52.9861C101.83 55.6867 101.838 58.3872 101.838 61.0903C101.838 61.3426 101.838 61.5923 101.838 61.8781L101.84 61.8755Z" fill="white"/>
<path d="M125.344 51.0323C123.988 51.0323 122.726 51.0245 121.462 51.0374C121.014 51.0426 120.559 51.0503 120.118 51.1301C118.788 51.3721 118.095 52.2319 118.018 53.8667C117.971 54.8218 118.018 55.7949 118.139 56.7448C118.301 58.0243 119.145 58.794 120.435 58.8121C121.972 58.8327 123.512 58.758 125.048 58.6885C125.507 58.6679 125.705 58.7683 125.728 59.2574C125.751 59.7672 125.865 60.2717 125.962 60.7763C126.042 61.1779 125.913 61.3942 125.512 61.5306C123.661 62.1485 121.756 62.3415 119.822 62.2566C119.102 62.2257 118.378 62.1021 117.668 61.9528C115.642 61.5306 114.406 60.264 113.93 58.274C113.446 56.248 113.471 54.1936 113.806 52.1547C114.221 49.6344 115.745 48.1824 118.262 47.804C120.53 47.4616 122.786 47.5723 125.005 48.1721C125.808 48.3909 125.834 48.4733 125.664 49.2945C125.604 49.588 125.55 49.8815 125.496 50.175C125.442 50.4685 125.391 50.7619 125.342 51.0374L125.344 51.0323Z" fill="white"/>
<path d="M186.561 48.0432C186.684 48.6945 186.798 49.3021 186.934 50.0255C188.834 48.5967 190.783 47.4048 193.331 47.6674C193.203 48.9468 193.079 50.1928 192.945 51.5058C191.267 51.3874 189.722 51.7581 188.18 52.2318C187.557 52.4223 187.416 52.7132 187.423 53.313C187.454 55.8874 187.436 58.4618 187.436 61.0336C187.436 61.2885 187.436 61.5459 187.436 61.8548H183.294V48.0432H186.558H186.561Z" fill="white"/>
<path d="M196.992 59.7644C196.995 61.6926 196.931 61.757 194.974 61.757C193.265 61.757 193.074 61.5742 193.084 59.8493C193.087 59.3834 193.136 58.9148 193.187 58.4515C193.249 57.9134 193.604 57.6843 194.114 57.6766C194.732 57.6663 195.352 57.6534 195.973 57.6766C196.622 57.7023 196.943 58.0267 196.987 58.6729C197.01 59.0333 196.992 59.3988 196.992 59.7618V59.7644Z" fill="#FF5039"/>
</g>
<defs>
<clipPath id="clip0_8_2148">
<rect width="197" height="82.7589" fill="white"/>
</clipPath>
</defs>
</svg>
