<svg width="155" height="65" viewBox="0 0 155 65" fill="none" xmlns="http://www.w3.org/2000/svg">
<g clip-path="url(#clip0_286_1147)">
<path d="M67.6801 33.2829C68.504 33.2829 69.335 33.2866 70.177 33.2938C71.0153 33.3011 71.8391 33.3192 72.6521 33.3483C73.4614 33.3773 74.2199 33.4281 74.9276 33.5043L74.7715 35.9576H68.9177C68.5511 35.9576 68.2717 36.052 68.0902 36.2443C67.9051 36.4367 67.8144 36.7161 67.8144 37.0827V44.8563C67.8144 45.2228 67.9051 45.5059 68.0902 45.6946C68.2753 45.887 68.5511 45.9813 68.9177 45.9813H74.7715L74.9276 48.431C74.2199 48.4891 73.4614 48.5399 72.6521 48.5762C71.8428 48.6125 71.019 48.6343 70.177 48.6415C69.3387 48.6488 68.504 48.6524 67.6801 48.6524C66.7075 48.6524 65.9236 48.3693 65.3284 47.8032C64.7333 47.237 64.4357 46.4967 64.4357 45.5821V36.3496C64.4357 35.4205 64.7333 34.6802 65.3284 34.1176C65.9236 33.5587 66.7075 33.2793 67.6801 33.2793V33.2829ZM64.8312 39.467H73.9549V41.8514H64.8312V39.467Z" fill="#005E78"/>
<path d="M79.2971 37.6815L79.6709 39.8445L79.9358 40.1312V48.5907H76.666V37.6778H79.2935L79.2971 37.6815ZM84.2654 37.3948C86.3268 37.3948 87.3574 38.4037 87.3574 40.4215V48.5943H84.0876V41.4377C84.0876 40.9513 84.0005 40.6175 83.8226 40.4324C83.6448 40.2473 83.3436 40.1566 82.9154 40.1566C82.4436 40.1566 81.9573 40.2473 81.4564 40.4324C80.9556 40.6175 80.3387 40.9005 79.6019 41.2816L79.4459 39.4489C80.2262 38.7847 81.0246 38.2767 81.8411 37.9246C82.6577 37.5726 83.4634 37.3948 84.2581 37.3948H84.2654Z" fill="#005E78"/>
<path d="M94.583 37.3948C94.9822 37.3948 95.4141 37.4129 95.8859 37.4492C96.3577 37.4855 96.8331 37.5508 97.3122 37.6488C97.7912 37.7432 98.2303 37.8811 98.6259 38.0589L98.2739 40.113C97.686 40.0985 97.1198 40.084 96.5827 40.0695C96.0456 40.0549 95.5629 40.0477 95.1347 40.0477C94.4705 40.0477 93.9479 40.1348 93.5669 40.3126C93.1822 40.4904 92.9064 40.8026 92.7394 41.2526C92.5688 41.7026 92.4854 42.3232 92.4854 43.118C92.4854 43.9127 92.5688 44.5624 92.7394 45.016C92.91 45.4733 93.1858 45.789 93.5669 45.9668C93.9479 46.1447 94.4742 46.2318 95.1347 46.2318C95.3706 46.2318 95.6718 46.2245 96.042 46.21C96.4085 46.1955 96.8077 46.1773 97.2359 46.1556C97.6642 46.1338 98.0815 46.0939 98.4953 46.0322L98.8037 48.108C98.2158 48.373 97.5444 48.5653 96.7932 48.6814C96.0419 48.7976 95.298 48.8593 94.5612 48.8593C93.2076 48.8593 92.1261 48.6706 91.324 48.2968C90.522 47.923 89.945 47.3133 89.5893 46.4749C89.2373 45.6366 89.0594 44.5152 89.0594 43.118C89.0594 41.7207 89.2409 40.5993 89.6002 39.761C89.9595 38.9226 90.5474 38.3166 91.3567 37.95C92.166 37.5835 93.2402 37.3984 94.583 37.3984V37.3948Z" fill="#005E78"/>
<path d="M105.362 37.3948C106.73 37.3948 107.83 37.5835 108.653 37.9573C109.477 38.3311 110.069 38.9408 110.432 39.7791C110.791 40.6175 110.972 41.7461 110.972 43.1579C110.972 44.5696 110.791 45.6547 110.432 46.4931C110.072 47.3314 109.477 47.9375 108.653 48.304C107.83 48.6706 106.734 48.8556 105.362 48.8556C103.99 48.8556 102.912 48.6706 102.081 48.304C101.25 47.9375 100.647 47.3314 100.281 46.4931C99.9143 45.6547 99.7292 44.5406 99.7292 43.1579C99.7292 41.7752 99.9143 40.6175 100.281 39.7791C100.647 38.9408 101.25 38.3311 102.081 37.9573C102.912 37.5835 104.004 37.3948 105.362 37.3948ZM105.362 39.7791C104.803 39.7791 104.36 39.8735 104.037 40.0658C103.714 40.2582 103.485 40.5957 103.351 41.082C103.217 41.5683 103.152 42.2615 103.152 43.1579C103.152 44.0543 103.217 44.7257 103.351 45.212C103.485 45.6983 103.71 46.0322 104.037 46.2173C104.36 46.4023 104.803 46.4931 105.362 46.4931C105.921 46.4931 106.363 46.4023 106.686 46.2173C107.009 46.0322 107.238 45.6983 107.372 45.212C107.507 44.7257 107.572 44.0398 107.572 43.1579C107.572 42.276 107.507 41.5683 107.372 41.082C107.238 40.5957 107.013 40.2582 106.686 40.0658C106.363 39.8735 105.921 39.7791 105.362 39.7791Z" fill="#005E78"/>
<path d="M115.367 37.6815L115.697 39.8445L116.028 40.1312V48.5907H112.758V37.6778H115.364L115.367 37.6815ZM119.784 37.3948C120.756 37.3948 121.497 37.6488 122.005 38.1569C122.513 38.665 122.767 39.4198 122.767 40.4215V48.5943H119.631V41.4377C119.631 40.9659 119.533 40.6356 119.334 40.4433C119.134 40.2509 118.829 40.1566 118.416 40.1566C118.165 40.1566 117.918 40.1892 117.675 40.2545C117.432 40.3199 117.153 40.436 116.837 40.5957C116.521 40.759 116.133 40.9876 115.676 41.2816L115.476 39.4707C116.198 38.7775 116.895 38.2585 117.574 37.9137C118.252 37.569 118.989 37.3948 119.784 37.3948ZM126.589 37.3948C127.576 37.3948 128.327 37.6524 128.842 38.1678C129.358 38.6831 129.615 39.4344 129.615 40.4215V48.5943H126.367V41.4377C126.367 40.9804 126.28 40.6538 126.102 40.4542C125.924 40.2545 125.616 40.1566 125.173 40.1566C124.908 40.1566 124.658 40.1929 124.422 40.2691C124.186 40.3416 123.914 40.4614 123.605 40.6211C123.297 40.7844 122.919 41.0058 122.48 41.2852L122.302 39.4743C123.01 38.7811 123.703 38.2621 124.389 37.9174C125.075 37.5726 125.805 37.3984 126.589 37.3984V37.3948Z" fill="#005E78"/>
<path d="M136.946 37.3948C138.786 37.3948 140.107 37.7069 140.909 38.3347C141.711 38.9589 142.114 39.8916 142.114 41.1292C142.129 42.1308 141.878 42.8784 141.363 43.372C140.848 43.8656 139.955 44.1123 138.692 44.1123H132.595V42.2796H137.785C138.285 42.2796 138.605 42.1744 138.746 41.9603C138.888 41.7461 138.957 41.4485 138.957 41.0675C138.942 40.5521 138.79 40.1965 138.503 39.9969C138.216 39.7973 137.734 39.6993 137.055 39.6993C136.453 39.6993 135.981 39.7791 135.64 39.9424C135.302 40.1058 135.066 40.4142 134.932 40.8715C134.798 41.3288 134.732 41.9893 134.732 42.8603C134.732 43.7748 134.812 44.4753 134.976 44.9688C135.139 45.4624 135.415 45.8035 135.803 45.9959C136.191 46.1882 136.736 46.2826 137.425 46.2826C137.926 46.2826 138.547 46.2644 139.291 46.2281C140.035 46.1918 140.782 46.1302 141.533 46.0394L141.842 48.05C141.414 48.2568 140.927 48.4165 140.383 48.5363C139.839 48.6524 139.28 48.7395 138.703 48.7903C138.126 48.8411 137.578 48.8665 137.048 48.8665C135.665 48.8665 134.547 48.6633 133.702 48.2605C132.856 47.854 132.243 47.2334 131.869 46.3951C131.495 45.5567 131.307 44.4825 131.307 43.1688C131.307 41.7389 131.499 40.6066 131.88 39.7682C132.261 38.9299 132.867 38.3238 133.691 37.9573C134.515 37.5907 135.596 37.4057 136.939 37.4057L136.946 37.3948Z" fill="#005E78"/>
<path d="M146.353 37.6815L146.752 39.8445L147.061 40.1312V48.5907H143.791V37.6778H146.353V37.6815ZM151.677 37.3948L151.368 40.4215H150.461C149.946 40.4215 149.409 40.4941 148.85 40.6429C148.291 40.7917 147.583 41.0094 146.73 41.307L146.509 39.4743C147.275 38.7956 148.048 38.2803 148.828 37.9283C149.608 37.5762 150.367 37.3984 151.103 37.3984H151.677V37.3948Z" fill="#005E78"/>
<path d="M153.423 45.2336C153.851 45.2336 154.148 45.3171 154.315 45.4877C154.486 45.6583 154.569 45.9558 154.569 46.3805V47.4402C154.569 47.8684 154.486 48.166 154.315 48.3366C154.145 48.5071 153.847 48.5906 153.423 48.5906H152.584C152.156 48.5906 151.858 48.5071 151.691 48.3366C151.521 48.166 151.437 47.8684 151.437 47.4402V46.3805C151.437 45.9522 151.521 45.6546 151.691 45.4877C151.862 45.3171 152.16 45.2336 152.584 45.2336H153.423Z" fill="#FF6047"/>
<path d="M45.7201 19.249H41.3978V8.55029C41.3978 3.82876 37.569 0 32.8475 0H11.7512C5.26228 0 0 5.26228 0 11.7548V33.9399C0 40.4324 5.26227 45.6947 11.7548 45.6947H28.3328L18.4615 59.0064C18.4615 59.0064 18.4325 59.0391 18.418 59.0536C16.3203 61.2747 17.9679 64.9437 21.0237 64.9437H45.7201C52.2127 64.9437 57.4749 59.6815 57.4749 53.1889V31.0039C57.4749 24.5113 52.2127 19.249 45.7201 19.249ZM8.58295 11.7548C8.58295 10.0056 10.002 8.58295 11.7548 8.58295C11.7548 8.58295 23.7891 8.58295 29.6792 8.58295C31.4321 8.58295 32.8511 10.0056 32.8511 11.7585V19.249H8.58295V11.7548ZM48.892 53.1853C48.892 54.9382 47.473 56.3572 45.7201 56.3572H36.7234C35.2391 56.3572 34.408 54.6478 35.3189 53.4792L39.9098 47.5964C41.151 46.0068 41.4377 43.8475 40.5776 42.0256C39.2021 39.1187 36.2444 37.1081 32.8148 37.1081H11.7512C9.99832 37.1081 8.57932 35.6891 8.57932 33.9362V31.7007C8.57932 29.5631 10.3141 27.8284 12.4516 27.8284H45.7165C47.4693 27.8284 48.8883 29.2474 48.8883 31.0002V53.1853H48.892Z" fill="#34AAA8"/>
<path d="M8.58294 62.7516C12.0765 62.7516 14.9086 59.9195 14.9086 56.426C14.9086 52.9324 12.0765 50.1003 8.58294 50.1003C5.0894 50.1003 2.25732 52.9324 2.25732 56.426C2.25732 59.9195 5.0894 62.7516 8.58294 62.7516Z" fill="#FF6047"/>
</g>
<defs>
<clipPath id="clip0_286_1147">
<rect width="154.569" height="64.9401" fill="white"/>
</clipPath>
</defs>
</svg>
