<svg width="156" height="63" viewBox="0 0 156 63" fill="none" xmlns="http://www.w3.org/2000/svg">
<g clip-path="url(#clip0_32_2140)">
<path d="M27.3389 44.3529C27.0431 44.3529 26.833 44.3529 26.6151 44.3529C21.6031 44.3529 16.5911 44.3529 11.5792 44.3529C8.72294 44.3529 6.15469 43.4813 3.99113 41.5979C1.40732 39.3487 0.0297998 36.5081 0.0142346 33.076C-0.0168957 25.7837 0.00645206 18.4992 0.00645206 11.2069C-0.00133052 5.92254 4.05339 1.10513 9.26772 0.225695C10.0771 0.0856084 10.9176 0.0155652 11.7426 0.00778258C18.3811 0 25.0275 0 31.666 0C36.499 0 40.149 3.64225 40.1646 8.4908C40.1724 11.6583 40.1646 14.818 40.1646 17.9855V18.6548C40.4603 18.6548 40.7094 18.6471 40.9662 18.6548C42.7717 18.7171 44.6084 18.6237 46.3829 18.8883C51.1691 19.5965 55.0682 23.768 55.613 28.5854C55.6753 29.138 55.7142 29.6906 55.7142 30.2431C55.7142 37.3486 55.7142 44.4541 55.7142 51.5596C55.7142 57.3498 51.4882 62.1673 45.7603 62.9144C45.3244 62.9689 44.873 63 44.4372 63C36.4678 63 28.4907 63 20.5213 63C18.5523 63 17.1515 61.747 16.9414 59.7858C16.848 58.8986 17.1515 58.1281 17.6885 57.4121C20.8716 53.1473 24.0468 48.8746 27.2221 44.602C27.2533 44.5631 27.2688 44.5086 27.3389 44.3452V44.3529ZM28.1638 27.0367C22.8328 27.0367 17.5095 27.0367 12.1784 27.0367C10.1394 27.0367 8.57508 28.3986 8.35716 30.391C8.27934 31.1381 8.33381 31.9086 8.33381 32.6635C8.33381 34.7103 9.59459 35.9789 11.6492 35.9789C18.3656 35.9789 25.0819 35.9555 31.7905 35.9944C34.8413 36.01 37.2305 37.3564 38.8805 39.9246C40.2813 42.1038 40.1257 44.3685 38.5302 46.4075C37.1371 48.182 35.7596 49.9642 34.3666 51.7386C33.8996 52.3379 33.705 52.9683 34.0708 53.692C34.4288 54.3925 35.0203 54.6493 35.7985 54.6493C38.5536 54.6337 41.3086 54.5792 44.0636 54.6649C45.8536 54.7193 47.3946 53.3185 47.3868 51.3183C47.3479 44.3452 47.3712 37.372 47.3712 30.391C47.3712 28.2975 46.1183 27.0445 44.0247 27.0445C38.7326 27.0445 33.4404 27.0445 28.1561 27.0445L28.1638 27.0367ZM8.3416 18.6237H31.7983C31.8139 18.5225 31.8372 18.4525 31.8372 18.3825C31.8372 16.0555 31.8683 13.7207 31.8372 11.3937C31.8061 9.64262 30.4675 8.38962 28.7164 8.38962C22.9806 8.38962 17.2527 8.38962 11.5169 8.38962C9.64907 8.38962 8.34938 9.6971 8.34938 11.5649C8.34938 13.6351 8.34938 15.7053 8.34938 17.7832V18.6315L8.3416 18.6237Z" fill="#00ACA9"/>
<path d="M8.34922 60.8207C5.01828 60.8363 2.31772 58.1591 2.22433 54.9215C2.12316 51.466 4.93267 48.6877 8.17022 48.6176C11.649 48.5398 14.3418 51.3882 14.4352 54.5479C14.5286 57.7933 11.9059 60.8441 8.34922 60.8207Z" fill="#FF5039"/>
<path d="M77.1471 35.0448V41.59H73.7539V28.9666C74.7579 28.9666 75.7696 28.9511 76.7813 28.9822C76.9292 28.9822 77.1004 29.2001 77.2094 29.3558C78.5791 31.2781 79.9488 33.2082 81.3186 35.1382C81.412 35.2705 81.5209 35.3951 81.6999 35.6363V28.9978H85.1398V41.6133C84.1203 41.6133 83.1086 41.6289 82.1046 41.5978C81.9723 41.5978 81.8167 41.4032 81.7155 41.2631C80.338 39.3875 78.9682 37.5119 77.5907 35.6285C77.4818 35.4807 77.3728 35.3328 77.1471 35.0371V35.0448Z" fill="#00607B"/>
<path d="M116.792 41.6056H113.391V28.9666C114.122 28.9666 114.862 28.9433 115.593 28.9822C115.749 28.99 115.92 29.1846 116.044 29.3324C117.196 30.78 118.34 32.2275 119.523 33.7296C119.71 33.4805 119.889 33.2626 120.053 33.0291C120.94 31.7995 121.835 30.5776 122.706 29.3402C122.909 29.0522 123.127 28.9277 123.485 28.9511C124.068 28.9822 124.66 28.9589 125.282 28.9589V41.5666H121.889V35.7375C121.889 35.7375 121.819 35.7141 121.78 35.7064C121.329 36.3056 120.885 36.9049 120.434 37.5041C120.014 38.0645 118.885 38.1112 118.449 37.5897C117.92 36.9594 117.399 36.3212 116.784 35.5818V41.5978L116.792 41.6056Z" fill="#00607B"/>
<path d="M142.863 37.6209V41.5744H139.462V28.9666C140.544 28.9666 141.61 28.9511 142.676 28.9666C143.89 28.99 145.128 28.9277 146.326 29.0989C148.575 29.4102 149.805 30.7099 150.023 32.9202C150.171 34.4144 149.634 35.6752 148.35 36.6325C149.26 38.2746 150.171 39.9012 151.12 41.6133C149.805 41.6133 148.575 41.6211 147.346 41.5978C147.221 41.5978 147.05 41.4188 146.98 41.2787C146.404 40.1891 145.859 39.0762 145.268 37.9944C145.174 37.8154 144.902 37.652 144.7 37.6364C144.116 37.5897 143.524 37.6209 142.878 37.6209H142.863ZM142.878 34.9359C143.548 34.9359 144.155 34.9359 144.762 34.9359C144.925 34.9359 145.089 34.897 145.252 34.858C145.992 34.6713 146.474 34.0564 146.497 33.2937C146.513 32.5622 146.124 31.8929 145.455 31.7839C144.614 31.6438 143.75 31.6438 142.878 31.5816V34.9437V34.9359Z" fill="#00607B"/>
<path d="M104.837 28.8499C108.098 28.8499 110.487 30.562 111.156 33.5505C112.028 37.4107 110.051 41.123 105.857 41.6756C101.732 42.2203 98.7121 39.9245 98.2763 36.2589C97.7082 31.4804 101.171 28.6864 104.829 28.8499H104.837ZM107.903 35.0993C107.74 34.5389 107.647 33.784 107.32 33.1536C106.362 31.3092 103.903 31.1146 102.611 32.7411C101.631 33.9786 101.561 35.3872 101.996 36.827C102.409 38.1967 103.436 38.9283 104.775 38.9283C106.137 38.9283 107.187 38.15 107.6 36.7959C107.748 36.3056 107.787 35.7919 107.911 35.0993H107.903Z" fill="#00607B"/>
<path d="M62.54 28.9901H70.9686C71.0698 29.8462 71.1709 30.7023 71.2877 31.6206H65.9722V33.9321H69.8479C69.9568 34.8348 70.0658 35.6987 70.1825 36.6093H65.9877V38.9518C66.7582 38.9518 67.5209 38.9518 68.2914 38.9518C69.2331 38.9518 70.1748 38.9363 71.1242 38.9674C71.2799 38.9674 71.5445 39.1464 71.5678 39.2787C71.6924 40.0258 71.7546 40.7807 71.8402 41.5745H62.5556V28.9901H62.54Z" fill="#00607B"/>
<path d="M128.255 28.9825H136.676C136.777 29.8464 136.886 30.7025 136.995 31.6208H131.679V33.9322H135.547C135.656 34.835 135.765 35.6989 135.882 36.6094H131.695V38.9364H137.228C137.337 39.8392 137.438 40.7031 137.547 41.5981H128.255V28.9903V28.9825Z" fill="#00607B"/>
<path d="M97.3819 29.9242C97.0472 30.6791 96.7204 31.4106 96.3935 32.1655C95.7864 32.0099 95.2028 31.8542 94.6191 31.7142C92.3076 31.1538 90.8367 33.0761 90.6966 34.8661C90.6032 35.9868 90.8056 37.0374 91.5838 37.9091C92.5178 38.952 93.833 39.2243 95.3428 38.6796C95.6308 38.5784 95.911 38.4383 96.2067 38.3138C96.2534 38.3838 96.3079 38.4383 96.339 38.5006C96.7281 39.2555 97.1095 40.0104 97.522 40.8042C96.697 41.3334 95.7864 41.5591 94.8603 41.6681C93.1015 41.8704 91.3971 41.7148 89.8483 40.7342C88.2918 39.7458 87.4435 38.2982 87.21 36.5082C86.8987 34.189 87.3813 32.0799 89.179 30.4456C91.2103 28.5933 94.8214 28.282 97.1562 29.7374C97.234 29.7841 97.2963 29.8541 97.3819 29.9242Z" fill="#00607B"/>
<path d="M153.44 41.5902C152.483 41.5902 151.767 40.8664 151.774 39.9014C151.774 38.913 152.506 38.1892 153.494 38.2048C154.436 38.2126 155.152 38.9675 155.137 39.9248C155.121 40.8976 154.413 41.598 153.448 41.5902H153.44Z" fill="#FF5039"/>
</g>
<defs>
<clipPath id="clip0_32_2140">
<rect width="155.13" height="63" fill="white"/>
</clipPath>
</defs>
</svg>
