<?xml version="1.0" encoding="UTF-8"?><svg id="Layer_2" xmlns="http://www.w3.org/2000/svg" viewBox="0 0 425.91 178.94"><defs><style>.cls-1{fill:#34aaa8;}.cls-1,.cls-2,.cls-3{stroke-width:0px;}.cls-2{fill:#ff6047;}.cls-3{fill:#005e78;}</style></defs><g id="Layer_1-2"><path class="cls-3" d="m186.49,91.71c2.27,0,4.56.01,6.88.03,2.31.02,4.58.07,6.82.15,2.23.08,4.32.22,6.27.43l-.43,6.76h-16.13c-1.01,0-1.78.26-2.28.79-.51.53-.76,1.3-.76,2.31v21.42c0,1.01.25,1.79.76,2.31.51.53,1.27.79,2.28.79h16.13l.43,6.75c-1.95.16-4.04.3-6.27.4-2.23.1-4.5.16-6.82.18-2.31.02-4.61.03-6.88.03-2.68,0-4.84-.78-6.48-2.34-1.64-1.56-2.46-3.6-2.46-6.12v-25.44c0-2.56.82-4.6,2.46-6.15,1.64-1.54,3.8-2.31,6.48-2.31Zm-7.85,17.04h25.14v6.57h-25.14v-6.57Z"/><path class="cls-3" d="m218.5,103.83l1.03,5.96.73.79v23.31h-9.01v-30.07h7.24Zm13.69-.79c5.68,0,8.52,2.78,8.52,8.34v22.52h-9.01v-19.72c0-1.34-.24-2.26-.73-2.77-.49-.51-1.32-.76-2.5-.76-1.3,0-2.64.25-4.02.76-1.38.51-3.08,1.29-5.11,2.34l-.43-5.05c2.15-1.83,4.35-3.23,6.6-4.2,2.25-.97,4.47-1.46,6.66-1.46Z"/><path class="cls-3" d="m260.62,103.04c1.1,0,2.29.05,3.59.15,1.3.1,2.61.28,3.93.55,1.32.26,2.53.64,3.62,1.13l-.97,5.66c-1.62-.04-3.18-.08-4.66-.12-1.48-.04-2.81-.06-3.99-.06-1.83,0-3.27.24-4.32.73-1.06.49-1.82,1.35-2.28,2.59-.47,1.24-.7,2.95-.7,5.14s.23,3.98.7,5.23c.47,1.26,1.23,2.13,2.28,2.62,1.05.49,2.5.73,4.32.73.65,0,1.48-.02,2.5-.06,1.01-.04,2.11-.09,3.29-.15,1.18-.06,2.33-.17,3.47-.34l.85,5.72c-1.62.73-3.47,1.26-5.54,1.58-2.07.32-4.12.49-6.15.49-3.73,0-6.71-.52-8.92-1.55-2.21-1.03-3.8-2.71-4.78-5.02-.97-2.31-1.46-5.4-1.46-9.25s.5-6.94,1.49-9.25c.99-2.31,2.61-3.98,4.84-4.99,2.23-1.01,5.19-1.52,8.89-1.52Z"/><path class="cls-3" d="m290.32,103.04c3.77,0,6.8.52,9.07,1.55,2.27,1.03,3.9,2.71,4.9,5.02.99,2.31,1.49,5.42,1.49,9.31s-.5,6.88-1.49,9.19c-.99,2.31-2.63,3.98-4.9,4.99-2.27,1.01-5.29,1.52-9.07,1.52s-6.75-.51-9.04-1.52c-2.29-1.01-3.95-2.68-4.96-4.99-1.01-2.31-1.52-5.38-1.52-9.19s.51-7,1.52-9.31c1.01-2.31,2.67-3.99,4.96-5.02,2.29-1.03,5.3-1.55,9.04-1.55Zm0,6.57c-1.54,0-2.76.26-3.65.79-.89.53-1.52,1.46-1.89,2.8-.37,1.34-.55,3.25-.55,5.72s.18,4.32.55,5.66c.37,1.34.99,2.26,1.89,2.77.89.51,2.11.76,3.65.76s2.76-.25,3.65-.76c.89-.51,1.52-1.43,1.89-2.77.37-1.34.55-3.23.55-5.66s-.18-4.38-.55-5.72c-.37-1.34-.99-2.27-1.89-2.8-.89-.53-2.11-.79-3.65-.79Z"/><path class="cls-3" d="m317.89,103.83l.91,5.96.91.79v23.31h-9.01v-30.07h7.18Zm12.17-.79c2.68,0,4.72.7,6.12,2.1s2.1,3.48,2.1,6.24v22.52h-8.64v-19.72c0-1.3-.27-2.21-.82-2.74-.55-.53-1.39-.79-2.53-.79-.69,0-1.37.09-2.04.27-.67.18-1.44.5-2.31.94-.87.45-1.94,1.08-3.2,1.89l-.55-4.99c1.99-1.91,3.91-3.34,5.78-4.29,1.87-.95,3.9-1.43,6.09-1.43Zm18.75,0c2.72,0,4.79.71,6.21,2.13,1.42,1.42,2.13,3.49,2.13,6.21v22.52h-8.95v-19.72c0-1.26-.24-2.16-.73-2.71-.49-.55-1.34-.82-2.56-.82-.73,0-1.42.1-2.07.31-.65.2-1.4.53-2.25.97-.85.45-1.89,1.06-3.1,1.83l-.49-4.99c1.95-1.91,3.86-3.34,5.75-4.29,1.89-.95,3.9-1.43,6.06-1.43Z"/><path class="cls-3" d="m377.35,103.04c5.07,0,8.71.86,10.92,2.59,2.21,1.72,3.32,4.29,3.32,7.7.04,2.76-.65,4.82-2.07,6.18-1.42,1.36-3.88,2.04-7.36,2.04h-16.8v-5.05h14.3c1.38,0,2.26-.29,2.65-.88.39-.59.58-1.41.58-2.46-.04-1.42-.46-2.4-1.25-2.95-.79-.55-2.12-.82-3.99-.82-1.66,0-2.96.22-3.9.67-.93.45-1.58,1.3-1.95,2.56-.37,1.26-.55,3.08-.55,5.48,0,2.52.22,4.45.67,5.81.45,1.36,1.21,2.3,2.28,2.83,1.07.53,2.57.79,4.47.79,1.38,0,3.09-.05,5.14-.15,2.05-.1,4.11-.27,6.18-.52l.85,5.54c-1.18.57-2.52,1.01-4.02,1.34-1.5.32-3.04.56-4.63.7s-3.1.21-4.56.21c-3.81,0-6.89-.56-9.22-1.67-2.33-1.12-4.02-2.83-5.05-5.14-1.03-2.31-1.55-5.27-1.55-8.89,0-3.94.53-7.06,1.58-9.37,1.05-2.31,2.72-3.98,4.99-4.99,2.27-1.01,5.25-1.52,8.95-1.52Z"/><path class="cls-3" d="m403.27,103.83l1.1,5.96.85.79v23.31h-9.01v-30.07h7.06Zm14.67-.79l-.85,8.34h-2.5c-1.42,0-2.9.2-4.44.61-1.54.41-3.49,1.01-5.84,1.83l-.61-5.05c2.11-1.87,4.24-3.29,6.39-4.26,2.15-.97,4.24-1.46,6.27-1.46h1.58Z"/><path class="cls-2" d="m422.75,124.64c1.18,0,2,.23,2.46.7.47.47.7,1.29.7,2.46v2.92c0,1.18-.23,2-.7,2.47-.47.47-1.29.7-2.46.7h-2.31c-1.18,0-2-.23-2.46-.7-.47-.47-.7-1.29-.7-2.47v-2.92c0-1.18.23-2,.7-2.46.47-.47,1.29-.7,2.46-.7h2.31Z"/><path class="cls-1" d="m125.98,53.04h-11.91v-29.48c0-13.01-10.55-23.56-23.56-23.56h-58.13C14.5,0,0,14.5,0,32.39v61.13c0,17.89,14.5,32.39,32.39,32.39h45.68l-27.2,36.68h0s-.08.09-.12.13c-5.78,6.12-1.24,16.23,7.18,16.23h68.05c17.89,0,32.39-14.5,32.39-32.39v-61.13c0-17.89-14.5-32.39-32.39-32.39ZM23.65,32.39c0-4.82,3.91-8.74,8.74-8.74,0,0,33.16,0,49.39,0,4.83,0,8.74,3.92,8.74,8.75v20.64H23.65v-20.65Zm111.07,114.16c0,4.83-3.91,8.74-8.74,8.74h-24.79c-4.09,0-6.38-4.71-3.87-7.93l12.65-16.21c3.42-4.38,4.21-10.33,1.84-15.35-3.79-8.01-11.94-13.55-21.39-13.55h-58.04c-4.83,0-8.74-3.91-8.74-8.74v-6.16c0-5.89,4.78-10.67,10.67-10.67h91.66c4.83,0,8.74,3.91,8.74,8.74v61.13Z"/><circle class="cls-2" cx="23.65" cy="155.48" r="17.43"/></g></svg>