<svg width="521" height="333" viewBox="0 0 521 333" fill="none" xmlns="http://www.w3.org/2000/svg">
<g clip-path="url(#clip0_242_1593)">
<path opacity="0.2" d="M275.85 332.825C373.594 332.825 452.831 330.925 452.831 328.581C452.831 326.237 373.594 324.337 275.85 324.337C178.106 324.337 98.8689 326.237 98.8689 328.581C98.8689 330.925 178.106 332.825 275.85 332.825Z" fill="#0B2252"/>
<path d="M370.353 16.3848C372.351 14.3866 375.109 13.1537 378.155 13.1537H389.129C390.764 5.63428 397.453 0.00292969 405.463 0.00292969C413.474 0.00292969 420.163 5.63428 421.798 13.1537H424.746C427.792 13.1537 430.55 14.3895 432.548 16.3848C434.546 18.38 435.779 21.1406 435.779 24.1871C435.779 27.5581 434.269 30.5748 431.887 32.5999C429.963 34.2348 427.471 35.2235 424.746 35.2235H378.158C375.112 35.2235 372.354 33.9876 370.356 31.9924C368.361 29.9971 367.125 27.2365 367.125 24.1901C367.125 21.1436 368.361 18.386 370.356 16.3878L370.353 16.3848Z" fill="#E9F3FC"/>
<path d="M236.207 33.002C234.331 31.1259 231.74 29.9645 228.875 29.9645H218.565C217.029 22.9008 210.745 17.6089 203.22 17.6089C195.695 17.6089 189.408 22.9008 187.874 29.9645H185.105C182.243 29.9645 179.649 31.1259 177.773 33.002C175.897 34.8782 174.736 37.469 174.736 40.3338C174.736 43.4994 176.156 46.3344 178.393 48.2374C180.2 49.774 182.544 50.7002 185.102 50.7002H228.875C231.737 50.7002 234.331 49.5387 236.207 47.6626C238.083 45.7865 239.245 43.1957 239.245 40.3308C239.245 37.469 238.083 34.8752 236.207 32.9991V33.002Z" fill="#E9F3FC"/>
<path d="M521 173.509V232.214C467.632 222.973 395.895 214.525 311.988 214.525C126.763 214.525 5.92605 249.525 5.92605 249.525C-4.85423 226.478 -2.41229 174.98 25.7028 159.441C53.8208 143.905 63.3057 166.264 85.5035 155.165C107.701 144.066 86.93 45.9475 121.019 39.6342C155.105 33.3209 176.57 96.448 218.232 96.448C259.894 96.448 253.584 33.3209 302.303 30.7956C351.02 28.2702 349.733 95.4266 379.04 95.4266C408.346 95.4266 396.464 68.4967 442.402 67.7046C488.343 66.9125 501.015 162.75 520.69 173.345C520.794 173.402 520.896 173.456 521 173.506V173.509Z" fill="url(#paint0_linear_242_1593)"/>
<path d="M107.204 253.521C101.865 253.36 96.0696 251.484 96.1976 242.908C96.3257 234.331 102.55 232.997 103.187 226.579C103.824 220.162 103.854 214.191 107.204 214.126C110.557 214.063 108.434 216.806 109.998 219.781C111.558 222.756 114.584 226.562 113.997 232.121C113.41 237.681 117.368 239.811 117.163 244.358C116.954 248.905 114.113 253.73 107.207 253.518L107.204 253.521Z" fill="#DAEEFF"/>
<path d="M109.179 231.621C109.083 231.534 108.94 231.54 108.851 231.633C108.762 231.725 108.768 231.874 108.86 231.96C108.875 231.975 110.251 233.36 110.111 238.104C109.989 242.205 107.862 248.551 107.189 250.465C106.558 248.97 105.742 247.324 105.057 245.936C104.592 244.998 104.193 244.191 103.976 243.679C103.184 241.814 104.39 237.895 104.402 237.857C104.441 237.735 104.372 237.604 104.25 237.565C104.128 237.526 103.997 237.595 103.958 237.717C103.905 237.883 102.687 241.838 103.547 243.86C103.771 244.384 104.173 245.197 104.64 246.141C105.891 248.67 107.785 252.487 107.755 253.973C107.713 256.034 107.466 258.991 107.463 259.021C107.451 259.149 107.547 259.262 107.675 259.274C107.681 259.274 107.687 259.274 107.696 259.274C107.815 259.274 107.916 259.182 107.928 259.06C107.928 259.03 108.181 256.058 108.223 253.982C108.235 253.318 107.922 252.285 107.457 251.109C107.764 250.266 110.441 242.785 110.581 238.116C110.73 233.119 109.247 231.677 109.185 231.618L109.179 231.621Z" fill="#6AC1FF"/>
<path d="M367.173 214.048C362.619 213.911 357.682 212.312 357.789 205.001C357.896 197.69 363.206 196.553 363.748 191.082C364.29 185.612 364.317 180.519 367.173 180.466C370.032 180.412 368.221 182.75 369.552 185.287C370.883 187.824 373.462 191.067 372.962 195.808C372.462 200.549 375.836 202.363 375.66 206.24C375.481 210.114 373.06 214.227 367.173 214.051V214.048Z" fill="#DAEEFF"/>
<path d="M368.855 195.376C368.775 195.302 368.65 195.308 368.575 195.385C368.501 195.466 368.504 195.591 368.581 195.665C368.593 195.677 369.767 196.856 369.647 200.903C369.543 204.4 367.733 209.808 367.158 211.443C366.619 210.168 365.925 208.765 365.338 207.583C364.942 206.785 364.6 206.094 364.415 205.659C363.739 204.069 364.77 200.728 364.778 200.695C364.811 200.591 364.752 200.478 364.647 200.445C364.543 200.412 364.43 200.472 364.397 200.576C364.353 200.719 363.313 204.09 364.046 205.814C364.236 206.261 364.579 206.955 364.978 207.759C366.044 209.915 367.658 213.17 367.631 214.435C367.596 216.192 367.384 218.715 367.381 218.739C367.372 218.849 367.453 218.944 367.563 218.953C367.569 218.953 367.575 218.953 367.581 218.953C367.682 218.953 367.768 218.876 367.777 218.771C367.777 218.745 367.992 216.21 368.027 214.441C368.039 213.876 367.771 212.994 367.375 211.99C367.637 211.27 369.918 204.894 370.038 200.912C370.163 196.654 368.9 195.424 368.846 195.373L368.855 195.376Z" fill="#6AC1FF"/>
<path d="M165.15 205.689C162.02 205.593 158.622 204.495 158.697 199.465C158.771 194.435 162.422 193.652 162.794 189.891C163.166 186.129 163.184 182.627 165.15 182.589C167.115 182.55 165.87 184.161 166.788 185.903C167.705 187.645 169.477 189.879 169.134 193.14C168.792 196.4 171.112 197.648 170.99 200.313C170.867 202.979 169.203 205.808 165.15 205.686V205.689Z" fill="#DAEEFF"/>
<path d="M166.308 192.848C166.252 192.797 166.168 192.8 166.118 192.854C166.067 192.907 166.067 192.994 166.124 193.047C166.132 193.056 166.94 193.866 166.856 196.651C166.785 199.054 165.537 202.776 165.144 203.899C164.775 203.023 164.295 202.056 163.893 201.243C163.622 200.692 163.387 200.218 163.259 199.92C162.794 198.827 163.503 196.528 163.509 196.505C163.533 196.433 163.491 196.356 163.42 196.335C163.348 196.311 163.271 196.353 163.25 196.424C163.22 196.523 162.505 198.842 163.009 200.028C163.14 200.334 163.375 200.811 163.649 201.365C164.381 202.848 165.492 205.087 165.474 205.957C165.451 207.166 165.305 208.899 165.305 208.917C165.299 208.991 165.355 209.057 165.43 209.066C165.433 209.066 165.439 209.066 165.442 209.066C165.513 209.066 165.573 209.012 165.579 208.941C165.579 208.923 165.727 207.181 165.751 205.963C165.76 205.573 165.576 204.965 165.302 204.277C165.48 203.783 167.053 199.396 167.133 196.657C167.219 193.726 166.35 192.88 166.314 192.848H166.308Z" fill="#6AC1FF"/>
<path d="M425.565 272.925C420.091 272.759 414.153 270.838 414.281 262.047C414.412 253.256 420.794 251.886 421.446 245.311C422.099 238.732 422.128 232.61 425.565 232.547C429.001 232.482 426.828 235.293 428.427 238.342C430.026 241.392 433.126 245.293 432.527 250.993C431.929 256.692 435.985 258.875 435.77 263.536C435.556 268.196 432.647 273.14 425.565 272.928V272.925Z" fill="#DAEEFF"/>
<path d="M427.587 250.478C427.492 250.388 427.343 250.394 427.25 250.489C427.161 250.585 427.164 250.737 427.259 250.826C427.274 250.841 428.686 252.261 428.54 257.124C428.415 261.326 426.235 267.83 425.547 269.796C424.901 268.265 424.064 266.576 423.361 265.153C422.885 264.191 422.474 263.363 422.25 262.839C421.437 260.927 422.676 256.91 422.688 256.871C422.727 256.746 422.658 256.612 422.53 256.573C422.405 256.535 422.271 256.603 422.232 256.731C422.179 256.904 420.928 260.957 421.812 263.03C422.042 263.566 422.456 264.403 422.932 265.367C424.216 267.958 426.154 271.874 426.125 273.396C426.083 275.507 425.827 278.542 425.824 278.572C425.812 278.703 425.91 278.819 426.041 278.831C426.047 278.831 426.056 278.831 426.062 278.831C426.184 278.831 426.288 278.736 426.3 278.613C426.3 278.584 426.559 275.534 426.601 273.408C426.616 272.726 426.294 271.666 425.818 270.463C426.134 269.596 428.876 261.928 429.019 257.142C429.171 252.02 427.652 250.543 427.587 250.483V250.478Z" fill="#6AC1FF"/>
<path d="M195.251 267.228C198.965 268.467 196.174 273.688 196.174 277.377C196.174 281.067 198.021 291.216 194.328 293.062C190.638 294.909 185.102 298.598 185.102 302.288C185.102 305.978 184.179 310.591 180.489 312.437C176.8 314.283 173.11 314.283 173.11 317.05C173.11 319.816 174.956 320.74 174.033 323.509C173.11 326.276 171.266 327.199 172.187 328.122H148.199C148.199 328.122 143.586 320.743 144.509 316.127C145.433 311.514 150.045 311.514 150.969 307.824C151.892 304.134 156.505 303.211 156.505 299.521C156.505 295.832 158.351 290.296 161.118 288.449C163.884 286.603 169.42 288.449 171.266 284.76C173.113 281.07 171.266 277.38 174.033 275.534C176.8 273.688 182.336 276.457 185.105 273.688C187.872 270.921 192.485 266.308 195.254 267.228H195.251Z" fill="#3FB790"/>
<path d="M191.544 286.014C191.472 285.77 191.219 285.627 190.972 285.698C190.927 285.713 186.716 286.916 183.729 286.874C185.811 279.007 190.275 277.369 190.326 277.354C190.567 277.273 190.695 277.011 190.615 276.77C190.534 276.529 190.272 276.398 190.031 276.478C189.793 276.559 184.215 278.53 182.342 288.828C181.907 291.222 180.367 293.48 178.268 295.656C176.487 293.888 175.936 288.262 175.877 286.133C175.871 285.883 175.665 285.683 175.415 285.683H175.403C175.147 285.689 174.947 285.904 174.953 286.157C174.962 286.487 175.204 293.876 177.622 296.309C175.293 298.584 172.395 300.77 169.542 302.92C166.49 305.219 163.533 307.449 161.267 309.748C160.906 308.831 160.826 305.883 161.112 302.795C161.136 302.542 160.948 302.315 160.695 302.291C160.445 302.279 160.218 302.455 160.192 302.708C160.01 304.668 159.733 308.968 160.62 310.427C159.111 312.071 157.976 313.757 157.443 315.534C157.368 315.779 157.508 316.035 157.753 316.109C157.797 316.124 157.842 316.13 157.884 316.13C158.083 316.13 158.265 316.002 158.324 315.802C159.453 312.038 163.613 308.584 168.318 305.004C170.891 307.408 177.848 307.813 178.155 307.827C178.164 307.827 178.173 307.827 178.179 307.827C178.423 307.827 178.625 307.637 178.64 307.39C178.655 307.137 178.458 306.919 178.205 306.904C178.134 306.901 171.463 306.514 169.063 304.436C169.405 304.176 169.751 303.917 170.096 303.655C176.07 299.156 182.246 294.504 183.247 288.995C183.324 288.572 183.417 288.182 183.506 287.786C183.64 287.792 183.768 287.801 183.908 287.801C187.008 287.801 191.04 286.639 191.228 286.586C191.472 286.514 191.612 286.258 191.544 286.014Z" fill="#34916F"/>
<path d="M139.977 269.075C135.164 271.481 139.977 281.99 139.054 285.683C138.13 289.373 135.364 292.142 136.287 295.832C137.21 299.522 139.054 302.291 139.054 305.981C139.054 309.671 133.518 313.36 134.441 319.82C135.364 326.279 138.13 328.122 138.13 328.122H158.428C158.428 328.122 160.275 326.276 160.275 322.586C160.275 318.897 155.662 315.207 156.585 313.36C157.508 311.514 161.198 307.824 160.275 301.365C159.352 294.906 156.585 294.906 155.662 291.216C154.739 287.527 156.585 285.68 155.662 282.914C154.739 280.147 150.126 277.378 149.203 275.534C148.279 273.688 145.513 266.308 139.977 269.075Z" fill="#90DAD8"/>
<path d="M155.495 301.472C155.305 301.308 155.01 301.332 154.846 301.532C153.929 302.628 151.576 305.296 150.063 306.502C150.102 305.862 150.126 305.222 150.126 304.596C150.126 301.722 150.123 298.804 149.986 295.999C149.986 295.981 149.986 295.96 149.983 295.942C149.861 293.432 149.631 291.014 149.194 288.822C148.262 284.164 143.771 277.839 143.583 277.571C143.434 277.363 143.148 277.318 142.94 277.464C142.731 277.613 142.684 277.899 142.833 278.107C142.88 278.17 147.401 284.539 148.291 289C148.634 290.71 148.848 292.562 148.979 294.495C147.303 292.768 144.483 291.338 144.337 291.264C144.11 291.151 143.833 291.24 143.717 291.469C143.604 291.699 143.696 291.975 143.923 292.089C143.964 292.109 148.023 294.164 149.072 296.118C149.203 298.878 149.206 301.758 149.206 304.593C149.206 307.032 148.839 309.674 148.518 312.005C148.211 314.221 147.955 316.094 148.053 317.398C146.445 316.472 143.759 315.388 143.381 315.236C143.145 315.141 142.877 315.257 142.782 315.493C142.687 315.728 142.803 315.996 143.038 316.091C144.277 316.588 147.6 318.006 148.372 318.721C149.408 320.82 151.064 325.15 151.21 328.14C151.222 328.387 151.424 328.578 151.671 328.578C151.677 328.578 151.686 328.578 151.695 328.578C151.948 328.566 152.145 328.348 152.133 328.095C151.981 324.93 150.23 320.359 149.161 318.223C148.714 317.33 149.066 314.805 149.435 312.127C149.628 310.728 149.828 309.218 149.968 307.702C151.823 306.576 155.403 302.309 155.561 302.118C155.724 301.922 155.698 301.633 155.501 301.469L155.495 301.472Z" fill="white"/>
<path d="M382.569 326.624C382.569 328.554 372.483 330.284 356.664 331.419C349.091 331.97 340.192 332.372 330.463 332.607C324.507 332.747 318.23 332.824 311.756 332.824C272.646 332.824 240.945 330.046 240.945 326.624C240.945 324.686 251.142 322.955 267.101 321.821C267.202 321.812 267.3 321.803 267.402 321.803C279.537 320.948 294.969 320.433 311.756 320.433C317.143 320.433 322.396 320.487 327.435 320.582C337.995 320.799 347.655 321.21 355.842 321.788C372.125 322.914 382.566 324.671 382.566 326.627L382.569 326.624Z" fill="#0A1B33"/>
<path d="M342.116 119.89C342.116 119.89 341.795 107.823 340.514 103.499C339.236 99.1751 338.605 97.2931 337.605 97.6326C336.604 97.9721 335.553 107.394 334.576 107.793C333.599 108.195 332.581 106.757 331.482 107.21C330.383 107.662 332.563 115.396 331.521 116.325C330.475 117.254 340.457 120.712 342.116 119.89Z" fill="#FFAA9D"/>
<path d="M329.397 114.098L343.06 118.454C343.06 118.454 345.308 149.687 321.115 165.361C296.919 181.031 267.816 180.888 258.902 165.164C251.86 152.737 278.617 149.044 288.542 148.112C298.468 147.183 316.717 144.181 329.397 114.101V114.098Z" fill="#01A29F"/>
<path d="M342.807 331.419C331.184 331.97 317.524 332.372 302.59 332.607C301.384 329.358 299.805 325.21 297.944 320.582C293.14 308.626 286.485 293.474 279.656 282.357C278.441 280.373 277.22 278.53 276.005 276.845C266.887 264.224 255.168 241.99 247.857 227.491C246.118 224.051 244.635 221.055 243.501 218.723C241.884 215.43 240.951 213.467 240.951 213.467L283.152 209.373C283.152 209.373 284.025 210.498 285.538 212.49C292.998 222.324 315.949 253.173 324.707 271.511C333.474 289.87 338.715 303.983 341.553 321.791C342.042 324.873 342.462 328.072 342.81 331.425L342.807 331.419Z" fill="#054151"/>
<path d="M192.69 279.489L183.164 285.454L205.57 322.223L211.195 311.508L192.69 279.489Z" fill="#14336D"/>
<path d="M192.69 279.489L211.195 311.508L223.822 308.896L202.723 273.581L192.69 279.489Z" fill="#FFAA9D"/>
<path d="M219.98 227.502C219.98 227.502 224.224 244.355 239.516 250.882C239.516 250.882 204.632 270.608 201.642 271.925L224.367 310.058C224.367 310.058 261.967 302.985 277.411 285.144C292.855 267.303 284.096 251.183 275.505 238.458C266.89 225.695 253.906 214.837 253.906 214.837L219.975 227.505L219.98 227.502Z" fill="#005471"/>
<path d="M286.255 211.212C286.827 216.48 225.737 235.974 220.651 232.401C215.564 228.824 214.474 208.306 217.756 195.641C221.041 182.975 236.928 148.6 242.065 144.026C244.132 142.186 277.825 148.192 277.128 150.351C265.529 186.281 285.317 202.582 286.255 211.215V211.212Z" fill="#3FB6B4"/>
<path d="M275.251 132.791L274.415 141.993L273.048 141.805C273.048 141.805 271.142 149.292 265.901 147.523C264.394 147.013 262.565 145.501 261.97 145.7C261.264 145.938 260.752 147.99 260.537 148.574C259.709 150.813 251.901 147.636 253.456 145.414C254.933 143.306 257.104 140.444 256.803 139.554C255.752 136.448 256.142 129.053 263.807 127.38C269.912 126.046 275.516 129.64 275.251 132.791Z" fill="#FFAA9D"/>
<path d="M253.459 145.411C254.936 143.303 257.107 140.441 256.806 139.551C256.806 139.551 259.409 144.661 262.202 145.688C262.208 145.688 262.211 145.694 262.217 145.697C262.125 145.682 262.038 145.676 261.976 145.697C261.27 145.936 260.758 147.987 260.543 148.571C259.715 150.811 251.907 147.633 253.462 145.411H253.459Z" fill="#FF9F91"/>
<path d="M262.351 135.98C258.953 135.021 260.287 142.961 256.502 142.299C252.717 141.638 250.942 133.023 254.421 126.894C257.899 120.766 263.182 121.686 268.161 123.1C273.14 124.515 279.111 127.466 278.703 131.299C277.717 140.525 267.616 131.626 266.601 134.324C265.814 136.412 264.299 142.526 266.508 142.904C268.718 143.282 271.178 141.689 272.884 142.344C273.87 142.722 275.371 155.12 268.051 154.753C260.808 154.39 259.662 147.844 261.729 142.815C263.694 138.032 264.01 136.445 262.351 135.977V135.98Z" fill="#14336A"/>
<path d="M227.467 75.1075C227.467 75.1075 237.238 68.0229 241.449 66.4058C245.66 64.7888 247.536 64.1456 247.875 65.1462C248.215 66.1468 241.377 72.7132 241.654 73.7317C241.931 74.7501 243.688 74.6846 243.998 75.8311C244.308 76.9777 236.842 79.9527 236.74 81.3493C236.639 82.743 227.821 76.927 227.464 75.1075H227.467Z" fill="#FFAA9D"/>
<path d="M239.802 81.6768L228.033 73.4844C228.033 73.4844 201.877 90.703 204.161 119.441C206.445 148.175 224.269 171.186 242.172 168.693C256.321 166.722 242.97 143.238 237.67 134.795C232.369 126.352 223.646 110.045 239.805 81.6768H239.802Z" fill="#3FB6B4"/>
</g>
<defs>
<linearGradient id="paint0_linear_242_1593" x1="260.498" y1="46.9689" x2="260.498" y2="181.532" gradientUnits="userSpaceOnUse">
<stop stop-color="#E9F3FC"/>
<stop offset="1" stop-color="white"/>
</linearGradient>
<clipPath id="clip0_242_1593">
<rect width="521" height="332.825" fill="white"/>
</clipPath>
</defs>
</svg>
