<svg width="496" height="339" viewBox="0 0 496 339" fill="none" xmlns="http://www.w3.org/2000/svg">
<g clip-path="url(#clip0_253_1127)">
<path opacity="0.2" d="M278.4 338.87C350.67 338.87 409.25 336.93 409.25 334.54C409.25 332.15 350.66 330.2 278.4 330.2C206.14 330.2 147.55 332.14 147.55 334.54C147.55 336.94 206.13 338.87 278.4 338.87Z" fill="#0B2252"/>
<path d="M164.9 15.72C162.98 13.8 160.33 12.62 157.41 12.62H146.88C145.31 5.4 138.89 0 131.2 0C123.51 0 117.09 5.41 115.52 12.62H112.69C109.77 12.62 107.12 13.81 105.2 15.72C103.28 17.64 102.1 20.29 102.1 23.21C102.1 26.44 103.55 29.34 105.84 31.28C107.69 32.85 110.08 33.8 112.7 33.8H157.41C160.33 33.8 162.98 32.61 164.9 30.7C166.82 28.78 168 26.13 168 23.21C168 20.29 166.81 17.64 164.9 15.72Z" fill="#E9F3FC"/>
<path d="M376.1 15.72C378.02 13.8 380.67 12.62 383.59 12.62H394.12C395.69 5.4 402.11 0 409.8 0C417.49 0 423.91 5.41 425.47 12.62H428.3C431.22 12.62 433.87 13.81 435.79 15.72C437.71 17.64 438.89 20.29 438.89 23.21C438.89 26.44 437.44 29.34 435.15 31.28C433.3 32.85 430.91 33.8 428.3 33.8H383.59C380.67 33.8 378.02 32.61 376.1 30.7C374.18 28.78 373 26.13 373 23.21C373 20.29 374.19 17.64 376.1 15.72Z" fill="#E9F3FC"/>
<path d="M493.1 176.14V236.1C438.59 226.66 365.31 218.03 279.6 218.03C90.4 218.03 4.01003 246.79 4.01003 246.79C-6.99998 223.25 5.20002 155.45 33.92 139.58C62.64 123.71 25.59 168.73 48.26 157.4C70.93 146.06 49.72 45.8401 84.54 39.3901C119.36 32.9401 141.28 97.4201 183.84 97.4201C226.4 97.4201 219.95 32.9401 269.72 30.3601C319.48 27.7801 318.17 96.3801 348.1 96.3801C378.03 96.3801 365.9 68.8701 412.82 68.0601C459.75 67.2501 472.69 165.14 492.79 175.97C492.9 176.03 493 176.08 493.1 176.13V176.14Z" fill="url(#paint0_linear_253_1127)"/>
<path d="M117.59 261.47C112.14 261.31 106.22 259.39 106.35 250.63C106.48 241.87 112.84 240.51 113.49 233.95C114.14 227.4 114.17 221.29 117.59 221.23C121.01 221.16 118.85 223.97 120.44 227C122.03 230.04 125.12 233.93 124.53 239.61C123.93 245.29 127.97 247.47 127.76 252.11C127.55 256.76 124.65 261.68 117.59 261.47Z" fill="#DAEEFF"/>
<path d="M119.61 239.1C119.51 239.01 119.37 239.02 119.27 239.1C119.18 239.19 119.19 239.34 119.27 239.44C119.28 239.45 120.69 240.87 120.55 245.71C120.43 249.9 118.26 256.38 117.56 258.33C116.91 256.8 116.08 255.12 115.38 253.7C114.91 252.74 114.49 251.92 114.27 251.39C113.46 249.49 114.7 245.48 114.7 245.44C114.74 245.32 114.67 245.18 114.54 245.14C114.42 245.1 114.28 245.17 114.24 245.29C114.19 245.46 112.94 249.5 113.82 251.57C114.05 252.11 114.46 252.94 114.94 253.9C116.22 256.48 118.15 260.38 118.12 261.9C118.08 264 117.82 267.03 117.82 267.06C117.81 267.19 117.9 267.31 118.04 267.32H118.06C118.18 267.32 118.29 267.23 118.29 267.1C118.29 267.07 118.55 264.03 118.59 261.91C118.6 261.23 118.28 260.17 117.81 258.97C118.13 258.11 120.86 250.47 121 245.7C121.15 240.6 119.64 239.12 119.57 239.06L119.61 239.1Z" fill="#6AC1FF"/>
<path d="M487.32 205.44C482.67 205.3 477.63 203.67 477.74 196.2C477.85 188.73 483.27 187.57 483.82 181.98C484.37 176.39 484.4 171.19 487.32 171.14C490.24 171.09 488.39 173.47 489.75 176.06C491.11 178.65 493.74 181.96 493.23 186.81C492.72 191.65 496.17 193.5 495.98 197.46C495.79 201.42 493.33 205.62 487.31 205.44H487.32Z" fill="#DAEEFF"/>
<path d="M489.04 186.36C488.96 186.28 488.83 186.29 488.76 186.36C488.68 186.44 488.68 186.57 488.76 186.65C488.77 186.66 489.97 187.87 489.85 192C489.74 195.57 487.89 201.1 487.31 202.76C486.76 201.46 486.05 200.02 485.45 198.81C485.05 197.99 484.7 197.29 484.51 196.84C483.82 195.22 484.87 191.8 484.88 191.77C484.92 191.66 484.85 191.55 484.75 191.52C484.64 191.48 484.53 191.55 484.5 191.65C484.46 191.8 483.39 195.24 484.14 197C484.34 197.46 484.69 198.17 485.09 198.99C486.18 201.19 487.83 204.52 487.8 205.81C487.76 207.6 487.55 210.18 487.55 210.21C487.55 210.32 487.63 210.42 487.74 210.43H487.76C487.87 210.43 487.95 210.35 487.96 210.24C487.96 210.21 488.18 207.63 488.22 205.82C488.23 205.24 487.96 204.34 487.56 203.32C487.83 202.58 490.16 196.07 490.28 192.01C490.41 187.66 489.12 186.4 489.06 186.35L489.04 186.36Z" fill="#6AC1FF"/>
<path d="M213.53 210.87C210.33 210.77 206.86 209.65 206.94 204.52C207.02 199.38 210.74 198.58 211.12 194.74C211.5 190.9 211.52 187.32 213.52 187.28C215.53 187.24 214.26 188.88 215.19 190.67C216.12 192.45 217.94 194.73 217.59 198.06C217.24 201.39 219.61 202.67 219.49 205.39C219.37 208.11 217.67 211 213.53 210.88V210.87Z" fill="#DAEEFF"/>
<path d="M214.71 197.76C214.65 197.71 214.57 197.71 214.52 197.76C214.47 197.82 214.47 197.9 214.52 197.95C214.52 197.95 215.35 198.79 215.27 201.63C215.2 204.09 213.92 207.89 213.52 209.03C213.14 208.13 212.65 207.15 212.24 206.32C211.96 205.76 211.72 205.28 211.59 204.97C211.12 203.85 211.84 201.51 211.85 201.48C211.87 201.4 211.83 201.33 211.76 201.31C211.68 201.29 211.61 201.33 211.59 201.4C211.56 201.5 210.83 203.87 211.34 205.08C211.47 205.4 211.72 205.88 211.99 206.45C212.74 207.96 213.87 210.25 213.85 211.14C213.82 212.38 213.68 214.15 213.68 214.17C213.68 214.24 213.73 214.32 213.81 214.32H213.82C213.89 214.32 213.95 214.27 213.96 214.19C213.96 214.17 214.11 212.39 214.14 211.15C214.14 210.75 213.96 210.13 213.68 209.43C213.87 208.93 215.47 204.44 215.55 201.65C215.64 198.66 214.75 197.79 214.71 197.76Z" fill="#6AC1FF"/>
<path d="M280.09 54.8301H235.84C234.38 54.8301 233.02 55.6101 232.29 56.8801L210.16 95.2001C209.43 96.4701 209.43 98.0301 210.16 99.3001L232.29 137.62C233.02 138.89 234.38 139.67 235.84 139.67H280.09C281.56 139.67 282.91 138.89 283.64 137.62L305.77 99.3001C306.5 98.0301 306.5 96.4701 305.77 95.2001L283.64 56.8801C282.91 55.6101 281.55 54.8301 280.09 54.8301Z" fill="white"/>
<path d="M275.95 142.18H239.98C235.07 142.18 230.49 139.54 228.04 135.29L210.06 104.14C207.61 99.8901 207.61 94.6101 210.06 90.3501L228.04 59.2001C230.49 54.9501 235.07 52.3101 239.98 52.3101H275.95C280.86 52.3101 285.43 54.9501 287.89 59.2001L305.87 90.3501C308.33 94.6001 308.33 99.8801 305.87 104.14L287.89 135.29C285.44 139.54 280.86 142.18 275.95 142.18ZM239.98 57.3401C236.86 57.3401 233.95 59.0201 232.39 61.7201L214.41 92.8701C212.85 95.5701 212.85 98.9301 214.41 101.63L232.39 132.78C233.95 135.48 236.86 137.16 239.98 137.16H275.95C279.07 137.16 281.98 135.48 283.54 132.78L301.52 101.63C303.08 98.9301 303.08 95.5701 301.52 92.8701L283.54 61.7201C281.98 59.0201 279.07 57.3401 275.95 57.3401H239.98Z" fill="#E0E9F3"/>
<path d="M279.65 73.4798C278.78 73.4798 277.94 73.0298 277.47 72.2198C275.91 69.5198 273 67.8398 269.88 67.8398C268.49 67.8398 267.37 66.7198 267.37 65.3298C267.37 63.9398 268.49 62.8198 269.88 62.8198C274.79 62.8198 279.36 65.4598 281.82 69.7098C282.52 70.9098 282.1 72.4498 280.9 73.1398C280.51 73.3698 280.07 73.4798 279.65 73.4798Z" fill="#E0E9F3"/>
<path d="M262.56 139.67H253.35V330.24H262.56V139.67Z" fill="#E0E9F3"/>
<path d="M274.63 325.77H241.3V334.98H274.63V325.77Z" fill="#E0E9F3"/>
<path d="M235.17 102.66C235.36 103.7 235.72 104.5 236.26 105.06C236.8 105.62 237.58 105.91 238.6 105.91C239.78 105.91 240.68 105.49 241.3 104.66C241.92 103.83 242.23 102.78 242.23 101.52C242.23 100.26 241.94 99.2299 241.36 98.3799C240.78 97.5299 239.88 97.0999 238.65 97.0999C238.07 97.0999 237.57 97.1699 237.15 97.3199C236.4 97.5899 235.84 98.0899 235.46 98.8099L231.18 98.6099L232.89 85.1899H246.26V89.2499H236.34L235.47 94.5599C236.21 94.0799 236.78 93.7599 237.19 93.5999C237.88 93.3399 238.73 93.2099 239.72 93.2099C241.73 93.2099 243.48 93.8899 244.98 95.2399C246.48 96.5899 247.22 98.5599 247.22 101.14C247.22 103.39 246.5 105.39 245.06 107.16C243.62 108.93 241.46 109.81 238.6 109.81C236.29 109.81 234.39 109.19 232.91 107.95C231.43 106.71 230.6 104.95 230.43 102.67H235.19L235.17 102.66Z" fill="#50C6A1"/>
<path d="M264.56 87.9702C265.8 90.1502 266.43 93.2402 266.43 97.2602C266.43 101.28 265.81 104.36 264.56 106.53C263.32 108.7 261.15 109.78 258.05 109.78C254.95 109.78 252.78 108.7 251.54 106.53C250.3 104.36 249.67 101.27 249.67 97.2602C249.67 93.2502 250.29 90.1502 251.54 87.9702C252.78 85.7902 254.95 84.7002 258.05 84.7002C261.15 84.7002 263.31 85.7902 264.56 87.9702ZM255.23 103.66C255.69 105.14 256.63 105.88 258.05 105.88C259.47 105.88 260.4 105.14 260.84 103.66C261.28 102.18 261.51 100.04 261.51 97.2502C261.51 94.4602 261.29 92.1602 260.84 90.7502C260.4 89.3402 259.47 88.6402 258.05 88.6402C256.63 88.6402 255.69 89.3402 255.23 90.7502C254.77 92.1602 254.54 94.3202 254.54 97.2502C254.54 100.18 254.77 102.18 255.23 103.66Z" fill="#50C6A1"/>
<path d="M283.65 87.9702C284.89 90.1502 285.52 93.2402 285.52 97.2602C285.52 101.28 284.9 104.36 283.65 106.53C282.41 108.7 280.24 109.78 277.14 109.78C274.04 109.78 271.88 108.7 270.63 106.53C269.39 104.36 268.76 101.27 268.76 97.2602C268.76 93.2502 269.38 90.1502 270.63 87.9702C271.87 85.7902 274.04 84.7002 277.14 84.7002C280.24 84.7002 282.41 85.7902 283.65 87.9702ZM274.32 103.66C274.78 105.14 275.71 105.88 277.14 105.88C278.57 105.88 279.49 105.14 279.93 103.66C280.37 102.18 280.59 100.04 280.59 97.2502C280.59 94.4602 280.37 92.1602 279.93 90.7502C279.49 89.3402 278.56 88.6402 277.14 88.6402C275.72 88.6402 274.79 89.3402 274.32 90.7502C273.86 92.1602 273.63 94.3202 273.63 97.2502C273.63 100.18 273.86 102.18 274.32 103.66Z" fill="#50C6A1"/>
<path d="M334.3 44.3999H177.09V332.17H334.3V44.3999Z" fill="#4D6977"/>
<path d="M324.51 54.8301H186.87V332.01H324.51V54.8301Z" fill="#7599AF"/>
<path d="M301.59 104.59L212.47 116.81L217.09 150.51L306.21 138.28L301.59 104.58V104.59Z" fill="white"/>
<path d="M233.56 132.97L235.55 133.32C235.4 134.43 235.02 135.29 234.41 135.9C233.8 136.51 232.97 136.89 231.92 137.03C230.62 137.21 229.5 136.91 228.54 136.14C227.58 135.37 227 134.21 226.79 132.68C226.57 131.06 226.81 129.73 227.53 128.72C228.25 127.71 229.29 127.1 230.66 126.92C231.86 126.76 232.87 126.98 233.72 127.58C234.22 127.94 234.64 128.49 234.96 129.24L233.07 129.98C232.89 129.49 232.59 129.12 232.19 128.88C231.78 128.64 231.32 128.55 230.79 128.62C230.07 128.72 229.52 129.06 229.13 129.64C228.75 130.22 228.64 131.09 228.8 132.26C228.97 133.5 229.31 134.34 229.83 134.81C230.35 135.27 230.96 135.46 231.67 135.36C232.19 135.29 232.62 135.06 232.95 134.67C233.28 134.28 233.48 133.72 233.55 132.99L233.56 132.97Z" fill="#FF4533"/>
<path d="M237.39 136.11L236.05 126.35L243.29 125.36L243.52 127.01L238.25 127.73L238.55 129.9L243.45 129.23L243.68 130.87L238.78 131.54L239.14 134.2L244.6 133.45L244.83 135.09L237.4 136.11H237.39Z" fill="#FF4533"/>
<path d="M246.22 134.9L244.88 125.14L249.03 124.57C250.07 124.43 250.85 124.41 251.34 124.52C251.83 124.63 252.26 124.89 252.6 125.3C252.95 125.71 253.16 126.2 253.24 126.78C253.34 127.51 253.21 128.15 252.84 128.68C252.47 129.22 251.87 129.61 251.03 129.85C251.49 130.04 251.88 130.27 252.2 130.52C252.52 130.78 252.97 131.26 253.54 131.95L254.99 133.69L252.63 134.01L250.91 132.08C250.3 131.39 249.89 130.96 249.67 130.79C249.46 130.62 249.24 130.51 249.02 130.47C248.8 130.43 248.47 130.43 248.01 130.5L247.61 130.55L248.17 134.63L246.2 134.9H246.22ZM247.42 129L248.88 128.8C249.83 128.67 250.41 128.55 250.63 128.44C250.86 128.33 251.02 128.17 251.13 127.95C251.24 127.74 251.27 127.49 251.23 127.19C251.19 126.86 251.06 126.61 250.86 126.43C250.66 126.25 250.39 126.16 250.06 126.15C249.9 126.15 249.42 126.2 248.62 126.31L247.08 126.52L247.42 129Z" fill="#FF4533"/>
<path d="M255.8 133.58L254.46 123.82L258.61 123.25C259.66 123.11 260.43 123.09 260.92 123.2C261.42 123.31 261.84 123.57 262.18 123.98C262.53 124.39 262.74 124.88 262.82 125.46C262.92 126.19 262.79 126.83 262.42 127.36C262.05 127.9 261.45 128.29 260.61 128.53C261.07 128.72 261.46 128.95 261.78 129.2C262.1 129.46 262.55 129.94 263.12 130.63L264.57 132.37L262.21 132.69L260.49 130.76C259.88 130.07 259.47 129.64 259.25 129.47C259.04 129.3 258.82 129.19 258.6 129.15C258.38 129.11 258.05 129.12 257.6 129.18L257.2 129.23L257.76 133.31L255.79 133.58H255.8ZM257 127.68L258.46 127.48C259.41 127.35 259.99 127.23 260.21 127.12C260.44 127.01 260.6 126.85 260.71 126.63C260.82 126.42 260.85 126.16 260.81 125.87C260.77 125.54 260.64 125.29 260.44 125.11C260.24 124.93 259.97 124.84 259.64 124.83C259.48 124.83 259 124.88 258.2 124.99L256.66 125.2L257 127.68Z" fill="#FF4533"/>
<path d="M274.17 131.07L272.03 131.36L270.88 129.26L266.98 129.8L266.48 132.13L264.39 132.42L266.86 122.13L268.95 121.84L274.2 131.07H274.17ZM270.01 127.7L268.17 124.26L267.35 128.06L270.02 127.7H270.01Z" fill="#FF4533"/>
<path d="M273.6 121.19L277.21 120.69C278.02 120.58 278.65 120.56 279.09 120.62C279.69 120.71 280.22 120.94 280.68 121.32C281.15 121.7 281.53 122.18 281.83 122.77C282.13 123.36 282.34 124.12 282.47 125.03C282.58 125.83 282.58 126.54 282.46 127.15C282.31 127.89 282.04 128.52 281.65 129.02C281.35 129.4 280.93 129.72 280.37 129.99C279.95 130.19 279.38 130.34 278.65 130.44L274.94 130.95L273.6 121.19ZM275.8 122.57L276.69 129.04L278.16 128.84C278.71 128.77 279.1 128.68 279.34 128.58C279.65 128.46 279.89 128.28 280.08 128.06C280.27 127.84 280.39 127.5 280.47 127.05C280.54 126.59 280.53 125.99 280.43 125.23C280.33 124.48 280.18 123.91 279.99 123.52C279.8 123.14 279.57 122.84 279.3 122.65C279.03 122.46 278.7 122.34 278.33 122.32C278.05 122.3 277.5 122.34 276.7 122.45L275.81 122.57H275.8Z" fill="#FF4533"/>
<path d="M283.46 124.88C283.32 123.88 283.36 123.03 283.56 122.32C283.71 121.79 283.95 121.31 284.29 120.86C284.63 120.41 285 120.06 285.43 119.81C286 119.47 286.69 119.24 287.48 119.14C288.92 118.94 290.13 119.23 291.12 120C292.11 120.77 292.71 121.96 292.93 123.55C293.15 125.13 292.89 126.42 292.15 127.43C291.41 128.44 290.33 129.04 288.9 129.24C287.45 129.44 286.23 129.16 285.25 128.38C284.27 127.61 283.68 126.45 283.46 124.9V124.88ZM285.48 124.53C285.63 125.64 286 126.44 286.59 126.94C287.18 127.44 287.86 127.63 288.65 127.53C289.43 127.42 290.04 127.05 290.47 126.41C290.9 125.78 291.03 124.89 290.88 123.76C290.73 122.64 290.37 121.84 289.8 121.36C289.23 120.88 288.54 120.69 287.73 120.8C286.92 120.91 286.3 121.28 285.88 121.91C285.46 122.53 285.33 123.41 285.48 124.53Z" fill="#FF4533"/>
<path d="M258.63 71.2798L222.39 117.18L223.39 117.97L259.63 72.0698L258.62 71.2798H258.63Z" fill="white"/>
<path d="M297.62 114.91L258.9 71.0898L257.94 71.9398L296.66 115.76L297.62 114.91Z" fill="white"/>
<path d="M302.69 220.02C306.91 220.02 310.33 216.6 310.33 212.38C310.33 208.16 306.91 204.74 302.69 204.74C298.47 204.74 295.05 208.16 295.05 212.38C295.05 216.6 298.47 220.02 302.69 220.02Z" fill="#4D6977"/>
<path d="M419.86 258.96C414.27 258.79 408.2 256.83 408.34 247.85C408.47 238.87 414.99 237.47 415.66 230.75C416.32 224.03 416.36 217.78 419.87 217.71C423.38 217.64 421.16 220.51 422.79 223.63C424.42 226.75 427.59 230.73 426.98 236.55C426.37 242.37 430.51 244.6 430.29 249.36C430.07 254.12 427.1 259.17 419.87 258.95L419.86 258.96Z" fill="#DAEEFF"/>
<path d="M421.93 236.03C421.83 235.94 421.68 235.95 421.59 236.04C421.5 236.14 421.5 236.29 421.59 236.39C421.6 236.4 423.05 237.86 422.9 242.82C422.77 247.11 420.55 253.76 419.84 255.76C419.18 254.2 418.33 252.47 417.61 251.02C417.12 250.04 416.7 249.19 416.48 248.65C415.65 246.7 416.91 242.59 416.93 242.55C416.97 242.42 416.9 242.28 416.77 242.24C416.64 242.2 416.5 242.27 416.46 242.4C416.41 242.58 415.13 246.72 416.03 248.83C416.26 249.38 416.68 250.23 417.18 251.22C418.49 253.87 420.47 257.87 420.44 259.42C420.4 261.58 420.14 264.68 420.13 264.71C420.12 264.84 420.22 264.96 420.35 264.98H420.37C420.49 264.98 420.6 264.88 420.61 264.76C420.61 264.73 420.88 261.62 420.92 259.44C420.93 258.75 420.6 257.66 420.12 256.43C420.44 255.55 423.25 247.72 423.39 242.83C423.54 237.6 422 236.09 421.93 236.03Z" fill="#6AC1FF"/>
<path d="M432.2 321.16L433.6 328.29H409.65L408.12 321.16H432.2Z" fill="#FFAA9D"/>
<path d="M433.6 328.29L434.73 333.86C434.8 334.21 434.53 334.54 434.18 334.54H407.34C407.01 334.54 406.8 334.2 406.94 333.91L409.65 328.3H433.6V328.29Z" fill="#0B2252"/>
<path d="M395.83 321.16L397.23 328.29H373.28L371.75 321.16H395.83Z" fill="#FFAA9D"/>
<path d="M397.23 328.29L398.36 333.86C398.43 334.21 398.16 334.54 397.81 334.54H370.97C370.64 334.54 370.43 334.2 370.57 333.91L373.28 328.3H397.23V328.29Z" fill="#0B2252"/>
<path d="M434.56 209.74C434.56 209.74 427.48 261.64 429.71 284.96C431.94 308.27 434.42 323.9 434.42 323.9H407.14C407.14 323.9 399.95 294.63 399.45 277.27C399.45 277.27 394.99 300.09 397.71 323.9H371.17C371.17 323.9 363.87 240.71 379.25 209.21L434.56 209.74Z" fill="#005471"/>
<path d="M399.23 129.08C399.23 129.08 424.94 133.17 434.46 155.42C443.98 177.68 439.93 185.44 436.44 188.97C432.94 192.51 425.87 195.79 425.87 195.79L399.23 129.07V129.08Z" fill="#09847E"/>
<path d="M373.97 219.71C376.75 223.42 435.57 221.06 436.92 211.58C438.27 202.11 426.65 142.66 414.3 134.33C402.75 126.54 394.7 128.04 387.26 129.81C379.82 131.58 375.34 145.71 374.62 159C373.89 172.3 371.12 215.88 373.97 219.7V219.71Z" fill="#00A39F"/>
<path d="M379.66 113.51L378.37 122.78L379.76 122.91C379.76 122.91 379.91 130.73 385.49 130.2C387.09 130.05 389.25 128.97 389.79 129.31C390.43 129.71 390.46 131.85 390.54 132.48C390.84 134.88 399.28 133.54 398.25 130.99C397.28 128.57 395.79 125.25 396.3 124.44C398.05 121.62 399.37 114.23 392.2 110.81C386.48 108.09 380.12 110.35 379.66 113.52V113.51Z" fill="#FFAA9D"/>
<path d="M398.26 130.98C397.29 128.56 395.8 125.24 396.31 124.43C396.31 124.43 392.56 128.88 389.58 129.24C389.58 129.24 389.58 129.24 389.56 129.24C389.65 129.24 389.74 129.26 389.8 129.3C390.44 129.7 390.47 131.84 390.55 132.47C390.85 134.87 399.29 133.53 398.26 130.98Z" fill="#FF9F91"/>
<path d="M391.66 119.62C395.23 119.46 392.09 126.98 395.98 127.2C399.87 127.42 403.6 119.33 401.58 112.48C399.56 105.63 394.13 105.32 388.9 105.57C383.66 105.82 377.09 107.35 376.61 111.23C375.46 120.56 387.47 114.11 387.85 117C388.15 119.24 388.23 125.62 385.96 125.49C383.69 125.36 381.63 123.21 379.8 123.47C378.74 123.62 374.41 135.51 381.71 136.83C388.94 138.14 391.58 131.94 390.7 126.5C389.86 121.33 389.92 119.69 391.66 119.61V119.62Z" fill="#14336A"/>
<path d="M316.19 147.33C316.19 147.33 310.23 136.98 309.07 132.67C307.92 128.36 307.71 131.6 308.72 131.37C309.74 131.14 311.83 131.35 312.86 131.18C313.89 131.02 317.44 131.32 318.6 131.13C318.75 131.11 318.09 129.89 318.26 130.09C319.47 131.43 322.08 138.63 323.27 138.85C324.63 139.09 317.99 147.17 316.17 147.33H316.19Z" fill="#FFAA9D"/>
<path d="M310.92 122.88C313.78 119.39 315.5 116.89 319.01 118.73C321.64 120.11 323.8 121.41 324.23 123.71C324.33 124.23 324.34 124.81 324.25 125.46C324.21 125.75 324.14 126.06 324.05 126.39C322.93 130.51 320.28 129.74 320.93 133.7C321.58 137.66 320.52 141.45 317.61 140.66C314.71 139.87 309.84 131.51 309.84 131.51C309.84 131.51 306.39 128.41 310.91 122.88H310.92Z" fill="#FFAA9D"/>
<path d="M323.94 135.87L314.66 146.6C314.66 146.6 328.89 174.12 357.4 174.85C385.91 175.58 410.4 160.43 409.8 142.56C409.33 128.43 384.84 139.14 375.98 143.48C367.12 147.82 350.17 154.72 323.94 135.88V135.87Z" fill="#00A39F"/>
<path d="M313.83 117.72C313.83 117.72 318.63 113.95 319.82 114.46C321.01 114.97 322.26 116.32 323.02 120.64C323.77 124.97 325.15 123.23 321.68 127.1C306.59 144.02 303.9 126.52 313.83 117.71V117.72Z" fill="#FFAA9D"/>
<path d="M323.76 120.96C323.76 120.96 325.57 120.76 326.07 122.48C326.57 124.2 324.75 127.89 320.84 130.6C316.93 133.32 318.36 129.78 318.86 127.97C319.35 126.16 320.85 120.85 323.76 120.96Z" fill="#FFAA9D"/>
</g>
<defs>
<linearGradient id="paint0_linear_253_1127" x1="246.55" y1="46.3601" x2="246.55" y2="179.51" gradientUnits="userSpaceOnUse">
<stop stop-color="#E9F3FC"/>
<stop offset="1" stop-color="white"/>
</linearGradient>
<clipPath id="clip0_253_1127">
<rect width="496" height="338.87" fill="white"/>
</clipPath>
</defs>
</svg>
