<svg width="517" height="340" viewBox="0 0 517 340" fill="none" xmlns="http://www.w3.org/2000/svg">
<g clip-path="url(#clip0_242_1785)">
<path opacity="0.2" d="M272.407 340C363.582 340 437.494 337.95 437.494 335.422C437.494 332.895 363.582 330.845 272.407 330.845C181.232 330.845 107.32 332.895 107.32 335.422C107.32 337.95 181.232 340 272.407 340Z" fill="#0B2252"/>
<path d="M205.862 16.6035C203.838 14.5798 201.044 13.3271 197.954 13.3271H186.833C185.176 5.70794 178.398 0 170.281 0C162.164 0 155.383 5.70794 153.729 13.3271H150.742C147.655 13.3271 144.857 14.5798 142.833 16.6035C140.81 18.6271 139.557 21.4216 139.557 24.5117C139.557 27.9262 141.089 30.9841 143.502 33.0367C145.451 34.6941 147.979 35.6931 150.739 35.6931H197.954C201.04 35.6931 203.838 34.4404 205.862 32.4167C207.885 30.3931 209.138 27.5986 209.138 24.5085C209.138 21.4216 207.885 18.6239 205.862 16.6003V16.6035Z" fill="#E9F3FC"/>
<path d="M516.85 168.155V231.476C459.285 221.508 381.909 212.395 291.404 212.395C91.6161 212.395 38 231.476 38 231.476C26.3721 206.617 12.4131 191.118 43.5 162C68.789 138.314 23.169 160.346 47.1122 148.375C71.0554 136.403 48.6508 30.5701 85.42 23.7604C122.186 16.9507 145.339 85.0413 190.277 85.0413C235.214 85.0413 228.408 16.9507 280.958 14.2268C333.505 11.5029 332.117 83.9395 363.728 83.9395C395.338 83.9395 382.522 54.8923 432.072 54.0378C481.626 53.1834 495.293 156.556 516.516 167.985C516.628 168.046 516.737 168.104 516.85 168.158V168.155Z" fill="url(#paint0_linear_242_1785)"/>
<path d="M67.8144 230.515C62.0551 230.341 55.8043 228.318 55.9424 219.067C56.0806 209.816 62.7939 208.377 63.4813 201.455C64.1687 194.533 64.2008 188.092 67.8144 188.022C71.4313 187.954 69.141 190.913 70.8274 194.121C72.5106 197.33 75.7741 201.435 75.1413 207.433C74.5085 213.43 78.7774 215.726 78.5558 220.631C78.3309 225.536 75.2666 230.74 67.8177 230.512L67.8144 230.515Z" fill="#DAEEFF"/>
<path d="M69.9443 206.893C69.8415 206.8 69.6873 206.806 69.591 206.906C69.4946 207.006 69.501 207.166 69.6006 207.259C69.6167 207.275 71.1007 208.769 70.9497 213.886C70.818 218.309 68.5245 225.154 67.7986 227.219C67.1176 225.607 66.2375 223.831 65.4987 222.334C64.9976 221.322 64.5672 220.452 64.3327 219.899C63.4783 217.888 64.7792 213.661 64.7921 213.619C64.8338 213.488 64.7599 213.346 64.6282 213.305C64.4965 213.263 64.3552 213.337 64.3134 213.468C64.2556 213.648 62.9419 217.914 63.8702 220.095C64.1111 220.66 64.5447 221.537 65.049 222.555C66.3981 225.283 68.441 229.401 68.4089 231.003C68.3639 233.226 68.0973 236.416 68.0941 236.448C68.0813 236.586 68.1841 236.708 68.3222 236.721C68.3286 236.721 68.335 236.721 68.3447 236.721C68.4731 236.721 68.5824 236.621 68.5952 236.49C68.5952 236.458 68.8682 233.252 68.9132 231.013C68.9261 230.297 68.5888 229.182 68.0877 227.913C68.4185 227.004 71.3062 218.935 71.4572 213.899C71.6178 208.509 70.0182 206.954 69.9507 206.89L69.9443 206.893Z" fill="#6AC1FF"/>
<path d="M495.123 206.607C490.212 206.46 484.886 204.735 485.002 196.849C485.117 188.963 490.845 187.736 491.429 181.836C492.014 175.935 492.043 170.442 495.123 170.384C498.207 170.326 496.254 172.848 497.69 175.585C499.126 178.321 501.907 181.819 501.368 186.933C500.828 192.047 504.467 194.003 504.278 198.185C504.085 202.364 501.474 206.8 495.123 206.611V206.607Z" fill="#DAEEFF"/>
<path d="M496.938 186.471C496.851 186.391 496.716 186.397 496.636 186.48C496.556 186.567 496.559 186.702 496.642 186.782C496.655 186.795 497.921 188.067 497.792 192.433C497.68 196.204 495.727 202.037 495.107 203.8C494.526 202.425 493.777 200.913 493.144 199.637C492.717 198.776 492.348 198.031 492.149 197.562C491.42 195.847 492.531 192.243 492.541 192.208C492.576 192.095 492.512 191.973 492.399 191.938C492.287 191.903 492.165 191.967 492.129 192.079C492.081 192.233 490.96 195.869 491.75 197.729C491.956 198.211 492.325 198.96 492.756 199.827C493.906 202.152 495.647 205.663 495.618 207.028C495.579 208.924 495.351 211.644 495.348 211.67C495.338 211.789 495.425 211.892 495.544 211.901C495.55 211.901 495.557 211.901 495.563 211.901C495.672 211.901 495.766 211.818 495.775 211.705C495.775 211.676 496.007 208.943 496.045 207.035C496.058 206.425 495.769 205.474 495.342 204.391C495.624 203.614 498.085 196.737 498.213 192.442C498.348 187.849 496.986 186.522 496.928 186.468L496.938 186.471Z" fill="#6AC1FF"/>
<path d="M111.541 192.066C108.165 191.963 104.5 190.778 104.58 185.353C104.661 179.927 108.599 179.083 109 175.026C109.402 170.969 109.421 167.191 111.541 167.15C113.661 167.108 112.318 168.846 113.308 170.725C114.297 172.604 116.208 175.013 115.839 178.53C115.47 182.047 117.972 183.393 117.84 186.268C117.708 189.143 115.913 192.195 111.544 192.063L111.541 192.066Z" fill="#DAEEFF"/>
<path d="M112.791 178.215C112.73 178.16 112.64 178.163 112.585 178.221C112.53 178.279 112.53 178.372 112.592 178.43C112.601 178.44 113.472 179.313 113.382 182.317C113.305 184.909 111.959 188.924 111.535 190.135C111.136 189.191 110.619 188.147 110.186 187.27C109.893 186.676 109.64 186.165 109.501 185.844C109 184.665 109.765 182.185 109.771 182.159C109.797 182.082 109.752 181.999 109.675 181.976C109.598 181.951 109.514 181.995 109.492 182.073C109.46 182.179 108.689 184.681 109.232 185.959C109.373 186.29 109.627 186.804 109.922 187.401C110.712 189.001 111.911 191.417 111.891 192.355C111.866 193.659 111.708 195.528 111.708 195.547C111.702 195.628 111.763 195.698 111.843 195.708C111.846 195.708 111.853 195.708 111.856 195.708C111.933 195.708 111.997 195.65 112.004 195.573C112.004 195.554 112.164 193.675 112.19 192.361C112.2 191.94 112 191.285 111.705 190.543C111.898 190.01 113.594 185.278 113.68 182.323C113.774 179.162 112.836 178.25 112.797 178.215H112.791Z" fill="#6AC1FF"/>
<path d="M442.454 246.613C436.55 246.434 430.145 244.362 430.283 234.88C430.424 225.397 437.308 223.92 438.011 216.827C438.715 209.732 438.747 203.128 442.454 203.06C446.16 202.99 443.816 206.022 445.541 209.311C447.265 212.6 450.609 216.808 449.964 222.956C449.318 229.104 453.693 231.459 453.462 236.486C453.23 241.513 450.092 246.845 442.454 246.617V246.613Z" fill="#DAEEFF"/>
<path d="M444.638 222.398C444.535 222.301 444.375 222.308 444.275 222.41C444.179 222.513 444.182 222.677 444.285 222.773C444.301 222.789 445.823 224.322 445.666 229.567C445.531 234.099 443.18 241.115 442.438 243.235C441.741 241.584 440.838 239.762 440.08 238.227C439.566 237.189 439.123 236.296 438.882 235.731C438.005 233.669 439.341 229.336 439.354 229.294C439.396 229.159 439.322 229.015 439.184 228.973C439.049 228.931 438.904 229.005 438.863 229.143C438.805 229.329 437.456 233.701 438.41 235.937C438.657 236.515 439.104 237.417 439.618 238.458C441.002 241.253 443.093 245.477 443.061 247.118C443.016 249.395 442.74 252.669 442.737 252.701C442.724 252.842 442.83 252.967 442.971 252.98C442.977 252.98 442.987 252.98 442.994 252.98C443.125 252.98 443.238 252.877 443.25 252.746C443.25 252.714 443.53 249.424 443.575 247.131C443.591 246.395 443.244 245.252 442.73 243.954C443.071 243.019 446.029 234.748 446.183 229.586C446.347 224.061 444.709 222.468 444.638 222.404V222.398Z" fill="#6AC1FF"/>
<path d="M121.258 254.384C117.904 255.258 105.2 254.747 107.625 248.477C110.324 241.507 117.525 247.6 120.615 251.464C119.443 245.3 119.282 239.021 119.301 235.661C117.018 232.918 112.193 215.479 121.698 216.343C134.151 217.474 123.117 233.981 120.249 235.853C120.249 239.875 120.519 247.844 122.34 254.757C122.726 250.363 127.11 237.867 132.934 242.275C141.382 248.667 125.218 256.382 122.767 256.25C123.538 258.772 124.534 261.098 125.835 262.957C126.773 264.297 127.807 265.845 128.88 267.531C128.899 267.551 128.919 267.573 128.938 267.592C129.481 262.967 133.798 251.085 139.499 255.399C147.385 261.367 133.82 268.489 129.991 269.301C132.368 273.166 134.816 277.585 136.705 281.841C136.971 277.662 145.169 269.125 148.423 274.007C150.237 276.731 140.63 285.603 137.463 283.615C139.268 288.028 140.357 292.152 139.981 295.162C139.843 296.27 139.641 297.581 139.406 298.997C141.651 296.514 149.759 288.192 152.174 294.632C154.175 299.974 147.488 303.07 144.674 303.07C142.474 303.07 140.139 300.989 139.226 300.08C139.098 300.848 138.96 301.638 138.822 302.444C137.691 309.016 136.332 316.927 136.73 321.685C138.645 317.968 147.202 302.499 152.178 312.447C154.728 317.547 147.491 321.823 144.677 322.761C142.371 323.528 138.243 322.838 136.833 322.565C136.91 323.101 137.013 323.596 137.154 324.02C138.989 329.519 142.689 335.105 142.724 335.159C142.869 335.375 142.811 335.667 142.596 335.808C142.515 335.863 142.426 335.889 142.336 335.889C142.185 335.889 142.034 335.815 141.944 335.68C141.912 335.632 139.162 331.475 137.19 326.763C134.98 326.484 126.49 325.327 124.049 323.699C121.235 321.823 116.202 315.662 120.297 313.384C126.641 309.861 133.29 319.227 136.204 324.097C135.118 320.464 136.078 313.189 137.206 306.363C134.935 307.044 127.557 305.724 124.984 304.008C122.17 302.132 117.323 297.276 120.297 294.632C127.753 288.006 135.625 302.042 137.363 305.409C137.543 304.346 137.723 303.298 137.896 302.283C138.365 299.56 138.809 296.99 139.053 295.04C139.403 292.246 138.362 288.224 136.506 283.717C135.025 284.186 130.02 285.571 124.518 284.784C117.956 283.846 114.628 278.735 117.018 276.346C121.087 272.276 133.11 280.708 136.217 283.004C134.325 278.568 131.671 273.705 128.764 269.067C124.939 269.953 109.7 269.629 111.763 263.577C113.822 257.532 121.624 261.599 126.208 265.145C125.832 264.589 125.453 264.033 125.074 263.491C123.339 261.014 122.122 257.792 121.267 254.381L121.258 254.384Z" fill="#90DAD8"/>
<path d="M148.419 312.45C156.289 309.302 158.213 321.347 158.631 325.298C160.365 319.536 161.101 312.527 160.317 306.819C159.119 306.79 154.477 306.571 151.233 304.949C147.481 303.073 145.169 295.563 148.419 294.635C153.88 293.074 158.689 302.543 160.15 305.772C160.022 305.042 159.871 304.339 159.688 303.668C158.489 299.28 157.622 293.623 157.25 288.066C155.769 288.041 151.638 287.896 149.357 287.135C146.544 286.197 141.783 278.851 145.606 277.759C150.877 276.252 155.541 283.814 157.172 286.852C156.858 281.058 157.095 275.478 158.081 271.678C157.661 270.008 156.854 266.465 156.854 263.696C156.854 259.944 161.207 252.563 165.293 256.196C172.758 262.832 161.57 270.586 158.888 272.288C157.982 276.031 157.783 281.437 158.107 287.042C159.784 282.824 166.555 267.644 174.669 274.948C177.785 277.752 170.917 284.324 166.231 286.2C162.501 287.691 159.321 288.005 158.171 288.073C158.547 293.533 159.408 299.097 160.587 303.42C160.802 304.204 160.972 305.036 161.114 305.894C162.89 302.306 171.164 287.058 180.293 293.697C184.084 296.453 176.542 303.073 172.793 304.949C169.574 306.559 163.018 306.642 161.226 306.636C162.003 312.321 161.3 319.282 159.614 325.118C162.37 320.952 170.422 310.252 176.545 317.139C180.178 321.225 170.776 324.688 168.106 325.578C165.755 326.361 160.731 326.596 159.138 326.65C157.805 330.678 155.99 334.019 153.874 335.782C153.787 335.856 153.681 335.892 153.575 335.892C153.44 335.892 153.308 335.834 153.215 335.725C153.048 335.525 153.077 335.23 153.276 335.063C155.297 333.38 157.025 330.19 158.3 326.339C157.079 325.831 153.53 324.299 151.23 322.767C148.416 320.891 144.064 314.194 148.416 312.453L148.419 312.45Z" fill="#3FB790"/>
<path d="M128.26 335.892H170.92C171.181 335.892 171.389 335.683 171.389 335.423C171.389 335.162 171.181 334.954 170.92 334.954H128.26C128 334.954 127.791 335.162 127.791 335.423C127.791 335.683 128 335.892 128.26 335.892Z" fill="#14336A"/>
<path d="M113.257 335.892H123.102C123.362 335.892 123.571 335.683 123.571 335.423C123.571 335.162 123.362 334.954 123.102 334.954H113.257C112.996 334.954 112.788 335.162 112.788 335.423C112.788 335.683 112.996 335.892 113.257 335.892Z" fill="#14336A"/>
<path d="M258.47 55.656H434.179C435.066 55.656 435.862 55.2545 436.392 54.6249C436.813 54.1238 437.067 53.4782 437.067 52.7715V20.737C437.067 20.0304 436.813 19.3847 436.392 18.8836C435.862 18.2508 435.069 17.8525 434.179 17.8525H258.47C257.814 17.8525 257.211 18.071 256.726 18.4371C256.032 18.9639 255.582 19.7991 255.582 20.737V52.7715C255.582 53.5167 255.865 54.1977 256.33 54.7117C256.857 55.293 257.622 55.6592 258.47 55.6592V55.656Z" fill="white"/>
<path d="M434.18 56.2988H258.47C257.478 56.2988 256.524 55.878 255.855 55.1424C255.264 54.4936 254.94 53.6488 254.94 52.7719V20.7374C254.94 19.626 255.447 18.6013 256.337 17.9268C256.954 17.4578 257.693 17.2104 258.47 17.2104H434.18C435.227 17.2104 436.213 17.6698 436.884 18.4728C437.417 19.1056 437.71 19.9118 437.71 20.7406V52.7751C437.71 53.6038 437.417 54.41 436.884 55.0428C436.213 55.8459 435.227 56.3052 434.18 56.3052V56.2988ZM258.47 18.4889C257.975 18.4889 257.506 18.6463 257.115 18.945C256.549 19.3754 256.228 20.0243 256.228 20.7341V52.7687C256.228 53.3276 256.434 53.864 256.809 54.2751C257.233 54.7441 257.84 55.0107 258.47 55.0107H434.18C434.844 55.0107 435.471 54.7184 435.898 54.2077C436.235 53.8062 436.422 53.2922 436.422 52.7654V20.7309C436.422 20.2041 436.235 19.6934 435.898 19.2887C435.471 18.778 434.841 18.4857 434.176 18.4857H258.467L258.47 18.4889Z" fill="#E3ECF5"/>
<path d="M407.471 48.4098H427.489C427.945 48.4098 428.356 48.2267 428.655 47.928C428.953 47.6292 429.136 47.2181 429.136 46.762V26.744C429.136 26.4132 429.04 26.1048 428.87 25.8478C428.574 25.3949 428.067 25.0962 427.485 25.0962H407.467C407.063 25.0962 406.693 25.2407 406.404 25.4849C406.044 25.7868 405.816 26.2397 405.816 26.7472V46.7652C405.816 47.2213 405.999 47.6324 406.298 47.9312C406.597 48.2299 407.008 48.413 407.464 48.413L407.471 48.4098Z" fill="#E3ECF5"/>
<path d="M278.822 34.4725H390.967C391.696 34.4725 392.354 34.177 392.833 33.7016C393.311 33.223 393.604 32.5645 393.604 31.8354C393.604 31.1319 393.327 30.4927 392.878 30.0205C392.396 29.5162 391.718 29.1982 390.967 29.1982H278.822C278.093 29.1982 277.434 29.4938 276.955 29.9692C276.477 30.4445 276.185 31.1062 276.185 31.8354C276.185 32.3558 276.336 32.8376 276.593 33.2455C277.061 33.9811 277.884 34.4725 278.822 34.4725Z" fill="#E3ECF5"/>
<path d="M278.822 44.3016H390.967C391.818 44.3016 392.576 43.8969 393.061 43.2706C393.401 42.8273 393.604 42.2684 393.604 41.6645C393.604 41.1441 393.453 40.6591 393.193 40.2512C392.724 39.5156 391.901 39.0273 390.967 39.0273H278.822C278.105 39.0273 277.457 39.3132 276.981 39.7758C276.49 40.2544 276.185 40.9225 276.185 41.6645C276.185 42.3937 276.48 43.0521 276.955 43.5307C277.434 44.0093 278.093 44.3016 278.822 44.3016Z" fill="#E3ECF5"/>
<path d="M321.697 107.892H145.988C145.101 107.892 144.305 107.491 143.775 106.861C143.354 106.36 143.1 105.715 143.1 105.008V72.9734C143.1 72.2667 143.354 71.6211 143.775 71.12C144.305 70.4872 145.098 70.0889 145.988 70.0889H321.697C322.353 70.0889 322.956 70.3073 323.442 70.6735C324.135 71.2003 324.585 72.0354 324.585 72.9734V105.008C324.585 105.753 324.302 106.434 323.837 106.948C323.31 107.529 322.545 107.896 321.697 107.896V107.892Z" fill="white"/>
<path d="M321.697 108.535H145.988C144.941 108.535 143.958 108.075 143.283 107.272C142.75 106.64 142.458 105.833 142.458 105.005V72.9701C142.458 72.1413 142.75 71.3383 143.283 70.7023C143.955 69.8993 144.941 69.4399 145.988 69.4399H321.697C322.475 69.4399 323.214 69.6873 323.83 70.1562C324.717 70.8308 325.228 71.8555 325.228 72.9669V105.001C325.228 105.878 324.903 106.723 324.312 107.372C323.644 108.107 322.693 108.528 321.697 108.528V108.535ZM145.988 70.7248C145.323 70.7248 144.697 71.0171 144.266 71.5278C143.929 71.9293 143.743 72.4433 143.743 72.9701V105.005C143.743 105.531 143.929 106.042 144.266 106.447C144.693 106.958 145.32 107.25 145.985 107.25H321.694C322.327 107.25 322.931 106.98 323.355 106.514C323.731 106.1 323.936 105.567 323.936 105.008V72.9733C323.936 72.2666 323.612 71.6146 323.047 71.1841C322.655 70.8854 322.186 70.728 321.691 70.728H145.988V70.7248Z" fill="#E3ECF5"/>
<path d="M172.7 100.562H152.682C152.226 100.562 151.815 100.379 151.516 100.08C151.217 99.7816 151.034 99.3704 151.034 98.9143V78.8964C151.034 78.5655 151.131 78.2571 151.301 78.0002C151.596 77.5473 152.104 77.2485 152.685 77.2485H172.703C173.108 77.2485 173.477 77.3931 173.766 77.6372C174.126 77.9391 174.354 78.3921 174.354 78.8996V98.9175C174.354 99.3736 174.171 99.7848 173.872 100.084C173.574 100.382 173.162 100.565 172.706 100.565L172.7 100.562Z" fill="#E3ECF5"/>
<path d="M301.345 86.6249H189.2C188.471 86.6249 187.812 86.3294 187.334 85.854C186.855 85.3754 186.563 84.7169 186.563 83.9877C186.563 83.2843 186.839 82.6451 187.289 82.1729C187.771 81.6654 188.448 81.3506 189.2 81.3506H301.345C302.074 81.3506 302.732 81.6461 303.211 82.1215C303.69 82.6001 303.982 83.2586 303.982 83.9877C303.982 84.5081 303.831 84.9899 303.574 85.3979C303.105 86.1334 302.283 86.6249 301.345 86.6249Z" fill="#E3ECF5"/>
<path d="M265.507 96.454H189.197C188.346 96.454 187.588 96.0493 187.103 95.4229C186.762 94.9796 186.56 94.4207 186.56 93.8168C186.56 93.2965 186.711 92.8115 186.971 92.4035C187.44 91.6679 188.262 91.1797 189.197 91.1797H265.507C266.224 91.1797 266.873 91.4656 267.348 91.9281C267.839 92.4067 268.145 93.0748 268.145 93.8168C268.145 94.546 267.849 95.2045 267.374 95.6831C266.895 96.1617 266.237 96.454 265.507 96.454Z" fill="#E3ECF5"/>
<path d="M196.065 124.595C196.065 124.595 190.608 119.986 190.203 120.281C189.798 120.577 190.425 123.195 190.425 123.195C190.425 123.195 186.737 120.429 185.15 121.977C183.564 123.525 188.285 133.849 192.93 135.105L196.065 124.595Z" fill="#FFAA9D"/>
<path d="M381.434 119.279C381.434 119.279 386.891 114.669 387.296 114.965C387.7 115.26 387.074 117.878 387.074 117.878C387.074 117.878 390.762 115.113 392.348 116.661C393.935 118.209 389.213 128.533 384.569 129.789L381.434 119.279Z" fill="#FFAA9D"/>
<path d="M250.838 319.144V327.476H279.356L280.393 317.859L250.838 319.144Z" fill="url(#paint1_linear_242_1785)"/>
<path d="M250.838 327.476L245.513 333.502C245.063 334.01 245.056 334.674 245.346 335.176C245.586 335.593 246.03 335.895 246.592 335.895H277.338C277.618 335.895 277.875 335.792 278.071 335.619C278.267 335.445 278.402 335.201 278.437 334.925L279.356 327.479H250.838V327.476Z" fill="#00213A"/>
<path d="M329.426 319.108L330.245 327.476H301.728L300.302 317.843L329.426 319.108Z" fill="url(#paint2_linear_242_1785)"/>
<path d="M330.245 327.476L335.571 333.502C336.02 334.01 336.027 334.674 335.738 335.176C335.497 335.593 335.057 335.895 334.491 335.895H303.745C303.466 335.895 303.209 335.792 303.013 335.619C302.817 335.445 302.682 335.201 302.646 334.925L301.728 327.479H330.245V327.476Z" fill="#00213A"/>
<path d="M265.161 173.734C265.161 173.734 254.243 210.94 252.219 239.252C250.196 267.563 250.286 320.085 250.286 320.085H280.753C280.753 320.085 287.877 248.355 290.707 248.098C293.534 247.841 299.19 320.085 299.19 320.085H331.071C331.071 320.085 323.892 196.579 312.511 173.737H265.161V173.734Z" fill="#005471"/>
<path d="M388.353 128.276L381.418 118.139C369.321 125.073 352.248 125.43 331.437 119.738C316.205 115.572 305.566 111.027 288.533 111.027C271.499 111.027 254.76 123.076 246.284 125.395C225.472 131.087 208.4 130.73 196.303 123.795L189.368 133.933C189.368 133.933 217.753 157.869 259.717 151.439C258.682 165.521 256.36 187.055 257.073 190.376C258.753 198.172 317.236 198.528 320.069 189.647C320.901 187.042 316.976 159.729 316.388 145.525C359.235 152.833 388.349 128.273 388.349 128.273L388.353 128.276Z" fill="#3FB6B4"/>
<path d="M303.973 97.8057L304.105 106.584L302.794 106.543C302.794 106.543 301.744 113.808 296.614 112.662C295.14 112.331 293.258 111.085 292.718 111.335C292.075 111.631 291.796 113.619 291.651 114.194C291.093 116.394 283.396 114.171 284.643 111.917C285.828 109.777 287.595 106.854 287.219 106.042C285.915 103.212 285.545 96.1836 292.618 93.8355C298.256 91.9628 303.912 94.7991 303.976 97.8057H303.973Z" fill="#FFAA9D"/>
<path d="M284.639 111.92C285.825 109.781 287.591 106.858 287.216 106.045C287.216 106.045 290.187 110.616 292.93 111.306C292.936 111.306 292.94 111.31 292.943 111.313C292.853 111.306 292.773 111.313 292.715 111.338C292.072 111.634 291.793 113.622 291.648 114.197C291.089 116.398 283.393 114.175 284.639 111.92Z" fill="#FF9F91"/>
<path d="M292.098 102.114C288.793 101.548 290.845 108.917 287.203 108.67C283.56 108.422 281.019 100.459 283.695 94.3177C286.368 88.1762 291.456 88.5166 296.299 89.355C301.147 90.1934 307.086 92.384 307.083 96.0491C307.073 104.87 296.637 97.4688 295.949 100.122C295.416 102.171 294.594 108.104 296.72 108.242C298.847 108.38 301.012 106.627 302.692 107.076C303.658 107.336 306.321 118.903 299.364 119.289C292.483 119.671 290.743 113.597 292.191 108.637C293.569 103.919 293.71 102.39 292.095 102.114H292.098Z" fill="#14336A"/>
<path d="M435.815 154.037C435.281 154.037 434.787 153.694 434.62 153.157C431.404 142.849 427.155 137.023 421.986 135.841C418.54 135.05 415.61 136.56 412.514 138.16C409.43 139.75 406.241 141.398 402.457 140.717C394.905 139.361 389.187 129.535 384.98 110.67C384.829 109.996 385.256 109.325 385.93 109.174C386.611 109.016 387.276 109.447 387.427 110.124C391.336 127.647 396.543 137.109 402.9 138.25C405.855 138.78 408.531 137.395 411.367 135.934C414.573 134.28 418.209 132.407 422.549 133.399C428.648 134.793 433.515 141.192 437.016 152.412C437.222 153.074 436.852 153.777 436.194 153.983C436.068 154.021 435.943 154.041 435.821 154.041L435.815 154.037Z" fill="#30564D"/>
<path d="M393.476 107.073C391.321 112.367 385.279 114.911 379.985 112.756C375.449 110.909 372.934 106.213 373.66 101.574C373.782 100.797 390.967 95.4102 392.043 96.785C394.253 99.6116 394.928 103.511 393.476 107.07V107.073Z" fill="#30564D"/>
<path d="M388.115 100.183L389.762 99.7387C390.019 99.6694 390.171 99.405 390.102 99.1481L386.967 87.5211C386.898 87.2641 386.633 87.112 386.376 87.1813L384.729 87.6253C384.472 87.6946 384.32 87.959 384.39 88.216L387.525 99.843C387.594 100.1 387.858 100.252 388.115 100.183Z" fill="#14336A"/>
<path d="M379.059 102.631L377.415 103.074C377.158 103.144 376.894 102.992 376.825 102.735L373.688 91.1113C373.619 90.8539 373.771 90.5901 374.028 90.5207L375.672 90.0772C375.929 90.0077 376.193 90.1594 376.262 90.4168L379.399 102.04C379.468 102.298 379.316 102.561 379.059 102.631Z" fill="#14336A"/>
<path d="M370.294 98.4034L393.674 92.322C394.066 92.2201 394.465 92.4547 394.567 92.8464L396.185 99.0668C396.59 100.624 395.654 102.219 394.097 102.624L374.938 107.607C373.38 108.012 371.786 107.076 371.381 105.519L369.763 99.2981C369.661 98.9064 369.896 98.5069 370.287 98.405L370.294 98.4034Z" fill="#4FC7A0"/>
<path d="M184.685 201.632C184.419 201.632 184.149 201.545 183.921 201.372C174.188 193.858 169.521 186.589 170.044 179.764C170.574 172.854 176.109 168.341 181.46 163.973C186.998 159.453 192.23 155.188 192.51 148.497C192.67 144.668 191.109 142.143 189.455 139.471C187.666 136.58 185.819 133.593 186.188 129.025C186.844 120.959 194.097 113.52 207.742 106.909C208.365 106.608 209.113 106.868 209.415 107.491C209.717 108.114 209.457 108.862 208.834 109.164C196.043 115.361 189.262 122.112 188.684 129.227C188.379 132.973 189.937 135.488 191.585 138.151C193.284 140.894 195.208 144.003 195.012 148.6C194.684 156.415 188.765 161.243 183.041 165.913C177.872 170.131 172.99 174.114 172.54 179.953C172.084 185.883 176.427 192.423 185.45 199.386C185.999 199.81 186.098 200.597 185.674 201.144C185.427 201.465 185.058 201.632 184.682 201.632H184.685Z" fill="#30564D"/>
<path d="M215.859 116.456C210.543 117.667 205.252 114.339 204.041 109.023C202.83 103.707 206.158 98.4163 211.474 97.2053C216.79 95.9943 222.081 99.3221 223.291 104.638C224.502 109.954 221.175 115.245 215.859 116.456Z" fill="#30564D"/>
<path d="M226.822 116.684C224.718 117.162 221.769 112.081 220.234 105.335C218.698 98.5899 219.158 92.731 221.258 92.2524C223.362 91.7738 226.311 96.8554 227.847 103.601C229.382 110.346 228.923 116.205 226.822 116.684Z" fill="#4FC7A0"/>
<path d="M212.971 107.973L212.544 106.103C211.13 99.8973 215.052 93.6658 221.255 92.2524L226.818 116.684C220.613 118.097 214.381 114.175 212.968 107.973H212.971Z" fill="#4FC7A0"/>
<path d="M226.253 114.188C224.579 114.57 222.235 110.526 221.011 105.159C219.787 99.7914 220.153 95.1306 221.827 94.7516C223.5 94.3693 225.845 98.4134 227.069 103.781C228.293 109.148 227.927 113.809 226.253 114.188Z" fill="#477A67"/>
<path d="M223.539 101.706C223.253 101.771 222.855 101.083 222.646 100.167C222.437 99.2517 222.501 98.4581 222.784 98.3938C223.07 98.3295 223.469 99.0171 223.677 99.9329C223.886 100.849 223.822 101.642 223.539 101.706Z" fill="#14336A"/>
<path d="M225.54 110.485C225.254 110.55 224.856 109.862 224.647 108.946C224.438 108.031 224.503 107.237 224.785 107.173C225.071 107.108 225.47 107.796 225.679 108.712C225.887 109.627 225.823 110.421 225.54 110.485Z" fill="#14336A"/>
</g>
<defs>
<linearGradient id="paint0_linear_242_1785" x1="258.425" y1="30.281" x2="258.425" y2="163.941" gradientUnits="userSpaceOnUse">
<stop stop-color="#E9F3FC"/>
<stop offset="1" stop-color="white"/>
</linearGradient>
<linearGradient id="paint1_linear_242_1785" x1="250.838" y1="322.667" x2="280.393" y2="322.667" gradientUnits="userSpaceOnUse">
<stop stop-color="#FFAA9D"/>
<stop offset="0.97" stop-color="#FF9F91"/>
</linearGradient>
<linearGradient id="paint2_linear_242_1785" x1="330.245" y1="322.658" x2="300.302" y2="322.658" gradientUnits="userSpaceOnUse">
<stop stop-color="#FFAA9D"/>
<stop offset="0.97" stop-color="#FF9F91"/>
</linearGradient>
<clipPath id="clip0_242_1785">
<rect width="516.85" height="340" fill="white"/>
</clipPath>
</defs>
</svg>
