<svg width="48" height="48" viewBox="0 0 48 48" fill="none" xmlns="http://www.w3.org/2000/svg">
<circle cx="24" cy="24" r="21" fill="white"/>
<path fill-rule="evenodd" clip-rule="evenodd" d="M34.9137 24.2589C34.9137 23.4518 34.8417 22.6775 34.7065 21.9335H24V26.3305H30.1187C29.9921 27.026 29.7258 27.6886 29.3359 28.2783C28.9459 28.868 28.4405 29.3724 27.8501 29.7613V32.6147H31.5234C33.6733 30.6354 34.9137 27.72 34.9137 24.2589Z" fill="#4285F4"/>
<path fill-rule="evenodd" clip-rule="evenodd" d="M24 35.3685C27.0695 35.3685 29.6425 34.3504 31.5234 32.6148L27.8501 29.7613C26.832 30.4434 25.5297 30.8476 24 30.8476C21.0392 30.8476 18.5331 28.8468 17.6387 26.16H13.8404V29.1057C14.7866 30.989 16.2378 32.5721 18.0319 33.6781C19.8261 34.784 21.8924 35.3693 24 35.3685Z" fill="#34A853"/>
<path fill-rule="evenodd" clip-rule="evenodd" d="M17.6388 26.16C17.4047 25.4638 17.2844 24.7344 17.2825 24C17.2825 23.2509 17.4114 22.5221 17.6388 21.84V18.8943H13.8404C13.0447 20.4786 12.6307 22.2271 12.6316 24C12.6316 25.8341 13.0712 27.5709 13.8404 29.1057L17.6388 26.16Z" fill="#FBBC05"/>
<path fill-rule="evenodd" clip-rule="evenodd" d="M24 17.1537C25.6686 17.1537 27.168 17.7272 28.3453 18.8526L31.6067 15.5937C29.6375 13.7571 27.0644 12.6316 24 12.6316C21.8924 12.6308 19.8261 13.216 18.0319 14.322C16.2378 15.4279 14.7866 17.011 13.8404 18.8943L17.6387 21.84C18.5331 19.1533 21.0392 17.1537 24 17.1537Z" fill="#EA4335"/>
</svg>
